<?xml version="1.0" encoding="utf-8"?>
<!DOCTYPE svg PUBLIC "-//W3C//DTD SVG 1.0//EN" "http://www.w3.org/TR/2001/REC-SVG-20010904/DTD/svg10.dtd">
<svg version="1.0" xmlns="http://www.w3.org/2000/svg" width="1024px" height="1024px" viewBox="0 0 1024 1024" preserveAspectRatio="xMidYMid meet">
 <g fill="#ffffff">
  <path d="M0 512 l0 -512 512 0 512 0 0 512 0 512 -512 0 -512 0 0 -512z m557.9 310.6 c18.5 -2.5 51.3 -9.2 56.6 -11.6 1.1 -0.5 4.5 -1.6 7.5 -2.6 9.6 -2.9 32.1 -12 43 -17.2 30 -14.4 53.9 -30.8 85.4 -58.4 l3.1 -2.7 116.8 -0.1 116.7 0 0 -118 0 -118 -61.5 0 -61.5 0 0 -18.4 c0 -20.1 -1 -32.5 -4.1 -51.6 -17.6 -108.4 -88.6 -203.3 -190 -254.1 -35.9 -17.9 -72.3 -28.9 -114.6 -34.6 -14.4 -1.9 -57.2 -2.1 -72.3 -0.4 -13.8 1.7 -24.4 3.3 -26.5 4.1 -1.1 0.5 -6.5 1.5 -12 2.4 -5.5 1 -11.3 2.3 -12.8 3.1 -1.6 0.8 -4.1 1.5 -5.7 1.5 -1.6 0 -3.2 0.5 -3.5 1 -0.3 0.5 -1.8 1 -3.3 1 -2.7 0 -13.5 3.1 -16.9 4.8 -1 0.5 -4.5 2 -7.8 3.2 -3.3 1.3 -6.9 3.1 -8.1 4.2 -1.2 1 -3.9 2.1 -6 2.4 -6.3 0.9 -29 10.9 -31.5 14 -0.6 0.8 -1.9 1.4 -2.8 1.4 -1 0 -3.6 1.6 -5.8 3.5 -2.3 1.9 -4.6 3.5 -5.1 3.5 -3.2 0 -23.7 14.3 -44.9 31.3 -11.1 8.9 -31.3 28.7 -41.9 41.2 -40.4 47.4 -66.9 103.2 -77.3 162.5 -3.3 19 -4.3 29.4 -5 52.5 l-0.6 22 -64.3 0.3 -64.2 0.2 0 117.5 0 117.5 120.3 0 120.4 0 1.9 2.1 c3.3 3.8 26.4 22.7 35.6 29.2 31.4 22.1 64.7 38.3 100.8 49 24.4 7.1 41.1 10.5 65.9 13.2 16.2 1.8 59.9 1.2 76 -0.9z"/>
  <path d="M485.5 813.4 c-48 -4.9 -84.6 -15.1 -123.5 -34.5 -25.9 -12.9 -56.2 -33.7 -75.2 -51.6 l-5.7 -5.3 -117 0 -117.1 0 0 -108.5 0 -108.5 64.9 0 64.9 0 0.5 -30.8 c0.7 -38.9 3.6 -60.4 12.2 -90.1 30.8 -106 116.4 -192.2 223.4 -225 12.7 -3.9 18.2 -5.3 34.6 -8.5 25.2 -5 36.4 -6 67.5 -6.1 45.6 0 72.7 4.3 112.9 18 28.1 9.6 49.8 20.3 76.6 37.9 18.4 12.1 31.9 23.1 48.9 39.6 50.1 48.6 81.7 106.9 94.5 174.2 4.2 22.1 5.4 35.3 5.5 63.5 l0.1 27.3 61.8 0 61.7 0 0 108.5 0 108.5 -102.2 0 c-72.6 0 -105.9 0.3 -114.6 1.2 l-12.2 1.2 -10.2 8.5 c-15.4 13 -45.7 35.1 -48.1 35.1 -0.4 0 -2.6 1.2 -5 2.7 -6.3 4.1 -8.1 5.2 -9.7 5.8 -0.8 0.4 -2.2 1.1 -3 1.6 -0.8 0.5 -2.6 1.4 -4 1.9 -3.6 1.5 -4.2 1.8 -7.5 3.9 -1.6 1.1 -4 2 -5.2 2 -1.2 0.1 -2.4 0.5 -2.7 1 -0.3 0.5 -1.7 1.2 -3.1 1.5 -1.4 0.4 -4.9 1.7 -7.8 3 -2.8 1.3 -6.5 2.7 -8.2 3 -4.1 1 -9.6 3.6 -12 5.6 -1.1 1 -4.2 2 -7 2.3 -8.2 0.9 -18.7 3.6 -20.5 5.2 -1.1 1 -3.6 1.5 -7.2 1.5 -6.2 0 -16.7 1.8 -18.5 3.3 -1.2 0.9 -74.8 1.9 -82.8 1.1z m26.8 -76.1 c-1.3 -0.2 -3.5 -0.2 -5 0 -1.6 0.2 -0.5 0.4 2.2 0.4 2.8 0 4 -0.2 2.8 -0.4z m156.5 0 c-1 -0.2 -2.8 -0.2 -4 0 -1.3 0.2 -0.5 0.4 1.7 0.4 2.2 0.1 3.2 -0.1 2.3 -0.4z m-218.1 -20.5 c-0.1 -4 -0.3 -1 -0.3 6.7 0 7.7 0.1 11 0.3 7.3 0.2 -3.7 0.2 -10 0 -14z m49.3 7.6 c0 -8.1 -0.4 -12.3 -1 -11.9 -0.6 0.4 -1 5.7 -1 12.6 0 7.3 0.4 11.9 1 11.9 0.6 0 1 -4.9 1 -12.6z m99.7 -8.6 c-0.1 -4 -0.3 -0.8 -0.3 7.2 0 8 0.2 11.2 0.3 7.3 0.2 -4 0.2 -10.6 0 -14.5z m63.1 -6.1 c1.2 -0.3 1.1 -0.5 -0.5 -0.6 -2.3 -0.1 -2.3 -0.1 -2.1 14.2 l0.2 14.2 0.3 -13.7 c0.3 -11.9 0.6 -13.7 2.1 -14.1z m-36.1 6.6 c-0.2 -2.7 -0.3 -0.5 -0.3 4.7 0 5.2 0.1 7.4 0.3 4.8 0.2 -2.7 0.2 -6.9 0 -9.5z m21 -2.5 c-0.2 -2.9 -0.3 -0.6 -0.3 5.2 0 5.8 0.1 8.1 0.3 5.3 0.2 -2.9 0.2 -7.7 0 -10.5z m-82.8 9.5 c0 -3.6 -0.2 -4.3 -0.9 -2.7 -0.7 1.8 -0.3 7.4 0.6 7.4 0.2 0 0.4 -2.1 0.3 -4.7z m-187.2 -1.5 c-0.2 -1.3 -0.4 -0.5 -0.4 1.7 -0.1 2.2 0.1 3.2 0.4 2.3 0.2 -1 0.2 -2.8 0 -4z m37 0 c-0.2 -1.3 -0.4 -0.5 -0.4 1.7 -0.1 2.2 0.1 3.2 0.4 2.3 0.2 -1 0.2 -2.8 0 -4z m125.3 0.8 c-0.7 -0.9 -1.6 -1.6 -2 -1.6 -1.5 0 -2 3.2 -0.9 4.7 1.1 1.2 1.4 1.2 2.7 -0.1 1.3 -1.2 1.3 -1.8 0.2 -3z m-63 -12.2 c0 -1 -0.7 -1.4 -2.2 -1.2 -3.2 0.5 -3.5 2.8 -0.4 2.8 1.7 0 2.6 -0.5 2.6 -1.6z m-61.7 -46.9 c18.7 -4.8 31.8 -19.7 36.1 -40.7 2 -9.8 2 -16 0 -25.1 -2.2 -9.9 -7.3 -20.1 -13.4 -26.9 -6.9 -7.8 -19 -14 -27.6 -14.1 -7.9 -0.2 -19.2 1.8 -21.3 3.7 -1 0.9 -2.6 1.6 -3.7 1.6 -3.1 0.1 -18.3 15.6 -21 21.4 -5.8 12.8 -7.4 29.4 -3.9 42.6 7.1 27.2 31.2 43.7 54.8 37.5z m256 0 c3.2 -0.8 7.9 -2.6 10.5 -3.9 7.8 -4 17 -14.9 19.6 -23.3 0.7 -2.1 0.4 -2.3 -2.6 -2.3 -3.1 0 -3.5 0.4 -5.1 5 -2.2 6.1 -9.5 13.8 -16.2 16.9 -4.4 2.1 -6 2.3 -16.5 1.9 -9 -0.3 -12.5 -0.8 -16.2 -2.5 -9.9 -4.5 -18 -14.9 -20.9 -26.9 -1.9 -7.6 -1.6 -29.7 0.5 -37.4 3.3 -12.8 11 -22.1 21.5 -26.1 4.8 -1.8 7.3 -2 17.6 -1.7 10.1 0.3 12.7 0.7 16.3 2.6 6.1 3.2 11.8 9.5 14 15.5 1.7 4.6 2.3 5.2 5.1 5.5 3.9 0.4 3.9 -0.3 0.1 -7.9 -7.4 -14.5 -23.4 -23.9 -38.4 -22.5 -3.8 0.4 -7.4 1 -8 1.5 -0.6 0.5 -2.5 1.2 -4.2 1.5 -5.4 1.2 -12.8 5.6 -18.4 11 -9.6 9.2 -15.2 23.9 -15.2 40.1 0 35 27.3 60.6 56.5 53z m-469.5 -49.7 l0.2 -49.8 18 0 18 0 0 -3.5 0 -3.5 -40.2 0.2 -40.3 0.3 0 3 0 3 18.3 0.3 18.2 0.2 0 50.1 0 50 3.8 -0.3 3.7 -0.3 0.3 -49.7z m69.2 28 c0 -11.9 0.3 -21.8 0.7 -22.1 0.4 -0.2 8.4 -0.2 17.6 0.1 l16.8 0.5 3.6 7.1 c1.9 3.9 7.1 13.7 11.5 21.9 7.9 14.5 8 14.7 11.4 14.7 1.9 0 3.4 -0.2 3.4 -0.4 0 -0.2 -3.4 -6.6 -7.6 -14.2 -11.6 -21.1 -13.4 -25 -13.4 -28.8 0 -3 0.6 -3.7 4.3 -5.9 5.6 -3.4 9 -7.1 12.4 -13.7 7.7 -15.2 -0.5 -34.6 -17.6 -41.1 -6.7 -2.5 -25.8 -3.9 -29.4 -2.1 -1.2 0.7 -6.5 1.3 -11.7 1.4 l-9.5 0.3 -0.3 51 c-0.1 28.1 0 51.6 0.3 52.3 0.3 0.8 1.8 1.2 4.1 1 l3.6 -0.3 -0.2 -21.7z m217 1.8 l0 -20.3 18.3 -0.5 c22.1 -0.6 26.9 -2 35.2 -10.2 18.9 -18.5 8.6 -49.7 -17.9 -54.5 -3.3 -0.6 -13.6 -1.1 -23 -1.1 -14.4 0 -17.2 0.3 -18.8 1.7 -1.7 1.5 -1.8 4.5 -1.8 53.5 l0 51.8 4 0 4 0 0 -20.4z m98 -33.2 l0 -53.5 -3.7 0.3 -3.8 0.3 -0.3 52 c-0.1 28.6 0 52.6 0.3 53.3 0.2 0.6 2 1.2 4 1.2 l3.5 0 0 -53.6z m143 51.6 c0.6 -1.2 3.1 -7.6 5.5 -14.3 2.4 -6.7 4.6 -13 5 -13.9 0.7 -1.7 2.9 -1.8 27 -1.8 l26.2 0 5.8 16 5.7 16 3.5 0 c3.1 0 3.4 -0.2 2.7 -2.2 -0.4 -1.3 -9.3 -25.2 -19.9 -53.3 l-19.2 -51 -4.8 0 -4.9 0 -4.3 11 c-5.8 15.1 -35.3 94.5 -35.3 95.1 0 0.2 1.3 0.4 3 0.4 1.9 0 3.3 -0.7 4 -2z m168 -1.5 l0 -3.5 -26.5 0 -26.5 0 0 -50 0 -50 -4 0 -4 0 0 53.5 0 53.5 30.5 0 30.5 0 0 -3.5z m-249 -156.7 c8.4 -2.7 15.6 -9.7 19.1 -18.3 2 -5.3 2.4 -8 2.7 -22.7 l0.4 -16.8 -11.5 0 c-7.9 0 -11.8 0.4 -12.5 1.3 -0.6 0.6 -1.2 8.1 -1.4 16.9 -0.3 14.1 -0.5 15.9 -2.4 18.5 -2 2.6 -2.7 2.8 -8.7 2.8 -5.6 0 -7 -0.4 -8.9 -2.3 l-2.3 -2.3 0 -50 0 -50.1 2.8 -2.4 c4 -3.4 12.4 -3.4 16.4 0 l2.8 2.4 0.3 15.1 0.3 15.1 12.6 0 12.5 0 -0.4 -14.2 c-0.4 -11.6 -0.9 -15.4 -2.6 -19.9 -3 -7.6 -8.1 -13.2 -15.4 -16.8 -5.7 -2.9 -6.9 -3.1 -17 -3.1 -5.9 0 -11.6 0.4 -12.6 0.9 -0.9 0.6 -2.9 1.2 -4.4 1.5 -4.6 1 -11 6.8 -14.5 13.2 -5.8 10.6 -6.3 15.2 -6.3 60.4 0 23.1 0.5 42.3 1 44.8 2.6 11.1 9 19.6 18.4 24.2 10.7 5.3 19.1 5.8 31.6 1.8z m-330.6 -0.3 c10.4 -2.7 17.9 -10.2 21.1 -20.9 5.2 -17.4 4 -37.9 -2.9 -48.2 -1.4 -2.2 -4.4 -5.1 -6.6 -6.4 -3.2 -2 -4 -3.1 -4 -5.6 0 -2.6 0.7 -3.6 4.5 -6 3.3 -2.1 5.3 -4.3 7.3 -8.4 2.5 -5 2.7 -6.5 2.6 -16.5 -0.1 -17.4 -4.8 -26.7 -15.6 -31.6 -5 -2.3 -6.5 -2.4 -30.5 -2.7 l-25.3 -0.4 0 74.1 0 74.1 21.8 0 c16.3 0 23.3 -0.4 27.6 -1.5z m66.6 -72.6 l0 -74.2 -10.7 0.7 c-7.6 0.5 -11.3 1.2 -12.5 2.3 -1.7 1.5 -1.8 6.3 -1.8 73.5 l0 71.8 12.5 0 12.5 0 0 -74.1z m40 72.4 c0.1 -3 2.8 -23.4 3.1 -23.7 0.2 -0.2 6.9 -0.5 14.9 -0.7 l14.5 -0.4 1.5 13 1.5 13 11.6 0.3 11.5 0.3 -2.7 -21.8 c-1.5 -12 -4.3 -34.4 -6.3 -49.8 -5.1 -39.7 -8.5 -66.2 -9.2 -71.9 l-0.6 -4.9 -9.1 0.7 c-4.9 0.3 -15 0.6 -22.3 0.6 l-13.3 0 -0.5 3.3 c-0.8 4.9 -17.6 141 -17.6 142.5 0 0.9 3 1.2 11.5 1.2 10.3 0 11.5 -0.2 11.5 -1.7z m100 -36.3 l0 -38 3.8 0 3.8 0 8.8 33.3 c4.9 18.2 9.5 35.3 10.3 38 l1.4 4.7 11.9 0 12 0 0 -74 0 -74 -11.5 0 -11.5 0 0 38 0 38 -3.5 0 c-1.9 0 -3.5 -0.2 -3.5 -0.5 0 -0.4 -14.1 -56.1 -18.1 -71.7 l-1 -3.8 -12.9 0 -13 0 0 74 0 74 11.5 0 11.5 0 0 -38z m183.4 36.3 c0.2 -1 1 -6.9 1.7 -13 l1.2 -11.3 14.8 0 c8.2 0 14.9 0.1 14.9 0.3 0 0.1 0.7 5.7 1.5 12.2 0.8 6.6 1.5 12.3 1.5 12.8 0 0.4 5.2 0.7 11.5 0.7 6.3 0 11.5 -0.3 11.5 -0.7 0 -0.8 -4.4 -35.6 -14 -111.8 -2.3 -18.1 -4.4 -33.6 -4.6 -34.3 -0.3 -1 -4.7 -1.3 -20.9 -1 -18.9 0.3 -20.6 0.5 -22.4 2.3 -1.7 1.7 -3.1 11.2 -10.5 71.1 -4.7 38 -8.6 70.3 -8.6 71.8 l0 2.6 10.9 0 c9.6 0 11 -0.2 11.5 -1.7z m-315.7 -182.4 c2.3 -1.1 4.7 -2.6 5.3 -3.4 1 -1.2 0.4 -1.3 -3.9 -0.8 l-5.1 0.6 0 -3.7 c0 -3 0.5 -4 3.3 -5.6 l3.2 -2 -3 0 c-4.7 0 -12.5 4.3 -17.7 9.6 -2.7 2.6 -4.8 5.2 -4.8 5.5 0 1.2 10.2 2.7 14.5 2.2 2.2 -0.3 5.9 -1.4 8.2 -2.4z m261.6 2 c3.1 -0.7 5.7 -1.5 5.7 -1.9 0 -1.4 -10.1 -10.5 -14.1 -12.7 -2.4 -1.3 -6 -2.3 -7.9 -2.2 -3.5 0.1 -3.5 0.1 2.3 2.6 5.3 2.4 5.7 2.8 5.7 6 0 3.1 -0.2 3.3 -3.3 3.3 -1.9 0 -5.5 -0.6 -8 -1.4 -2.6 -0.8 -4.4 -1 -4.1 -0.5 1.1 1.9 8.4 5.9 12.2 6.8 5.1 1.2 5.2 1.2 11.5 0z m-183.3 -29.5 c0 -24.6 -0.2 -27.5 -1.6 -27.2 -1.4 0.3 -1.6 3.6 -1.7 27.6 -0.2 25.3 -0.1 27.2 1.6 27.2 1.6 0 1.7 -2 1.7 -27.6z m85.4 2.1 c-6.8 -14.1 -12.4 -26.1 -12.4 -26.8 0 -0.6 -0.5 -0.4 -1.1 0.7 -0.8 1.3 -0.8 2 -0.1 2.5 0.6 0.4 3 4.7 5.3 9.6 2.3 5 6.6 14.2 9.6 20.5 3.1 6.3 5.8 13.2 6 15.3 0.5 3 1 3.7 2.9 3.7 2.1 0 1.3 -1.9 -10.2 -25.5z m-191.9 8.6 c2.2 -1 4.6 -2.5 5.4 -3.4 1.1 -1.5 1 -1.8 -1.4 -2.7 -3.6 -1.4 -9 0.3 -12.8 3.9 l-2.8 2.6 2.3 0.6 c3.7 1.1 5.1 1 9.3 -1z m312.8 0 c1.6 -1.6 -7.5 -6.1 -12.6 -6.1 -2.5 0 -4.8 0.4 -5.2 0.9 -0.6 1 3.7 4.4 7.6 6.1 2.7 1.1 8.7 0.6 10.2 -0.9z m-251.1 -16.9 c-0.8 -2.6 -0.8 -2.6 -2.5 1.5 -0.8 2.2 -1.3 5.1 -1 6.3 0.6 2.1 0.7 2 2.5 -1.4 1.4 -2.8 1.7 -4.4 1 -6.4z m180.1 1.9 c-1.8 -4.6 -1.9 -4.6 -2.7 -1.7 -0.4 1.5 0.1 4 1.1 6.2 1.7 3.4 1.8 3.5 2.4 1.3 0.3 -1.3 0 -4 -0.8 -5.8z m-243 -6.2 c-5.9 -3.9 -6.3 -4.4 -6.3 -8 0 -3.8 0.1 -3.9 3.5 -3.9 2 0 6.3 1.4 9.6 3.1 3.4 1.7 6.2 2.9 6.4 2.7 0.9 -0.9 -7 -10.2 -11.3 -13.3 -7.7 -5.6 -14.2 -7.7 -26.4 -8.3 -6 -0.2 -10.8 -0.2 -10.8 0.2 0 1.5 4 8.5 8.2 14.1 7.1 9.6 20.4 17.4 29.8 17.5 l3.5 0 -6.2 -4.1z m312.5 1.1 c8 -3.6 14.7 -9.5 20.1 -17.7 2.8 -4.2 5.1 -8.4 5.1 -9.1 0 -1.2 -2 -1.4 -11.7 -1 -10.4 0.5 -12.5 0.9 -17.3 3.4 -7.7 3.9 -12.5 7.9 -16.1 13 -1.6 2.4 -2.7 4.4 -2.3 4.4 0.4 0 3.5 -1.6 7 -3.5 4.6 -2.6 7.4 -3.5 10.8 -3.5 4.5 0 4.6 0.1 4.6 3.3 0 2.8 -0.8 3.7 -6.6 7.7 -3.6 2.4 -6.8 4.9 -7.1 5.4 -1 1.5 8.4 -0.2 13.5 -2.4z m-39.7 -7.9 c3.7 -5.7 5.3 -13.4 4.5 -20.5 l-0.7 -5.6 -4.3 2.9 c-8.8 6.1 -14.7 14.7 -16.1 23.6 -0.6 3.9 -0.5 4 1.1 1.8 1.2 -1.7 2.7 -2.3 5.5 -2.3 3.8 0 3.9 0.1 3.9 3.6 0 3.3 0.2 3.5 1.7 2.3 0.9 -0.8 2.9 -3.4 4.4 -5.8z m-233.2 -2.1 c3.3 0 4 0.4 5.1 3 1.6 3.8 3.1 2.9 2.3 -1.3 -1.4 -8 -6.3 -15.4 -14.4 -21.8 -5.3 -4.1 -6.9 -2.9 -6.9 5.2 0 6.8 2.6 14.3 6.7 19.7 l2.8 3.7 0.3 -4.2 c0.3 -4.3 0.4 -4.3 4.1 -4.3z"/>
  <path d="M392.3 656.6 c-11.9 -3.8 -20.9 -14.3 -24.4 -28.6 -0.8 -3.2 -1.3 -11 -1.3 -18.5 0 -10.6 0.4 -14.3 2.1 -20 4 -12.7 13.2 -22.5 23.8 -25.4 6 -1.6 22.3 -1.4 27.6 0.4 6.5 2.2 14 8.3 17.6 14.5 5.6 9.2 6.7 14.7 6.7 31.5 0 12.9 -0.3 15.9 -2.2 21.3 -2.9 8.2 -5.9 12.8 -11.5 17.7 -8.9 7.9 -10.5 8.5 -23 8.4 -6.2 0 -13.1 -0.6 -15.4 -1.3z"/>
  <path d="M271.5 588.6 l0 -24.6 19.6 0 c19.6 0 19.7 0 25 2.8 3.9 2 6 4 7.7 6.9 2.9 5.3 3.8 14.9 2.2 22.7 -1 4.9 -2.1 6.9 -6 11 l-4.9 5.1 -21.8 0.3 -21.8 0.4 0 -24.6z"/>
  <path d="M488 589.9 l0 -26 20.3 0.3 c23.2 0.3 25.8 1.1 31.2 8.7 2.8 4 3 4.9 3.3 15.6 0.4 13.3 -0.6 16.3 -7.7 23.1 l-4.6 4.4 -21.2 0 -21.3 0 0 -26.1z"/>
  <path d="M745 621.9 c0 -1.7 4.1 -14.3 9 -28.1 5 -13.8 9 -25.2 9 -25.4 0 -0.2 1.5 -0.4 3.4 -0.4 3.4 0 3.5 0.2 5.7 6.8 1.2 3.7 5.3 15.2 9 25.5 3.8 10.4 6.9 20.2 6.9 21.8 l0 2.9 -21.5 0 -21.5 0 0 -3.1z"/>
  <path d="M292.2 458.8 l0.3 -25.3 8.8 0.1 c7.6 0.1 9 0.4 11.2 2.4 3.2 3 4.5 9.7 4.5 23.8 -0.1 13.6 -1 18.5 -4.1 21.8 -2.1 2.2 -3 2.4 -11.6 2.4 l-9.3 0 0.2 -25.2z"/>
  <path d="M292.5 413.8 c-0.3 -0.8 -0.4 -9.7 -0.3 -19.8 l0.3 -18.5 8.6 -0.3 c7.3 -0.2 9 0 11 1.7 2.3 1.9 2.4 2.3 2.4 16.9 0 13.7 -0.2 15.3 -2.1 17.9 -2 2.6 -2.6 2.8 -10.8 3.1 -6.4 0.2 -8.8 -0.1 -9.1 -1z"/>
  <path d="M430 454.7 c0 -2.9 1.6 -20.3 3.5 -38.7 1.9 -18.4 3.5 -34.2 3.5 -35.2 0 -1.4 0.8 -1.8 3.9 -1.8 4.5 0 3.9 -2.4 7.1 27.5 1.1 10.5 3 26.1 4.1 34.8 1.1 8.7 1.8 16.5 1.5 17.3 -0.4 1.1 -3 1.4 -12.1 1.4 l-11.5 0 0 -5.3z"/>
  <path d="M713.3 452.8 c0.4 -4 1.6 -15.8 2.7 -26.3 1.1 -10.4 2.5 -24.2 3 -30.5 1.7 -18.5 1.5 -18 5.5 -18 3.1 0 3.5 0.3 4 3.3 0.8 4.6 7.6 63.9 8.2 72 l0.6 6.7 -12.3 0 -12.3 0 0.6 -7.2z"/>
 </g>
 <g fill="#28201a">
  <path d="M478.9 826.5 c-62.2 -6.8 -117.4 -27.4 -166.7 -62.2 -9.2 -6.5 -32.3 -25.4 -35.6 -29.2 l-1.9 -2.1 -120.4 0 -120.3 0 0 -120.5 0 -120.5 64.2 -0.2 64.3 -0.3 0.6 -21.5 c0.9 -30.5 3.5 -50.4 10 -76.5 5.4 -21.9 18.5 -57.2 23.9 -64.7 1.1 -1.5 2 -3.3 2 -4 0 -1.3 12.9 -24.7 15.3 -27.7 0.6 -0.9 1.8 -2.7 2.6 -4.1 3 -5.6 16.8 -24.5 24.5 -33.7 11.2 -13.5 20.2 -22.9 33.1 -34.5 6.1 -5.5 11.7 -10.6 12.6 -11.4 0.9 -0.8 1.9 -1.4 2.4 -1.4 0.4 0 1.5 -0.8 2.4 -1.9 2.1 -2.4 17.6 -14.2 26.1 -19.8 3.6 -2.3 7 -4.7 7.7 -5.3 0.7 -0.5 2.1 -1 3.3 -1 1.1 0 2 -0.4 2 -1 0 -0.5 0.5 -1 1.1 -1 0.6 0 2.9 -1.6 5.2 -3.5 2.2 -1.9 4.8 -3.5 5.8 -3.5 0.9 0 2.2 -0.6 2.8 -1.4 1.3 -1.6 17.2 -9.6 19 -9.6 0.7 0 2.3 -0.7 3.7 -1.7 1.4 -0.9 4.8 -2 7.6 -2.4 2.8 -0.5 6 -1.7 7.2 -2.7 1.2 -1.1 4.8 -2.9 8.1 -4.2 3.3 -1.2 6.8 -2.7 7.8 -3.2 3.4 -1.7 14.2 -4.8 16.9 -4.8 1.5 0 3 -0.4 3.3 -1 0.3 -0.5 1.9 -1 3.5 -1 1.6 0 4.1 -0.7 5.7 -1.5 1.5 -0.8 7.3 -2.1 12.8 -3.1 5.5 -0.9 10.9 -1.9 12 -2.4 2.1 -0.8 12.5 -2.4 26.5 -4.1 13.2 -1.5 62.8 -1.6 74.5 -0.1 57.2 7.4 101.9 23.2 151 53.5 12.6 7.7 37.6 26.9 38.9 29.7 0.5 1.1 1.6 2 2.6 2 2.1 0 28.1 25.6 38.1 37.5 41.3 49.3 67.1 103.9 77.3 163.9 3.5 20.1 4.6 34 4.7 54.6 l0 18 61.4 0 61.5 0 0 121 0 121 -116.7 0 -116.8 0.1 -3.1 2.7 c-31.5 27.6 -55.4 44 -85.4 58.4 -10.9 5.2 -33.4 14.3 -43 17.2 -3 1 -6.4 2.1 -7.5 2.6 -5.3 2.4 -37.9 9.1 -56.6 11.6 -16.1 2.2 -65.4 2.7 -82 0.9z m86.4 -17.3 c1.8 -1.4 12.3 -3.2 18.5 -3.2 3.6 0 6.1 -0.5 7.2 -1.5 1.8 -1.6 12.3 -4.3 20.5 -5.2 2.8 -0.3 5.9 -1.3 7 -2.3 2.4 -2 7.9 -4.6 12 -5.6 1.7 -0.3 5.4 -1.7 8.2 -3 2.9 -1.3 6.4 -2.6 7.8 -3 1.4 -0.3 2.8 -1 3.1 -1.5 0.3 -0.5 1.5 -0.9 2.7 -1 1.2 0 3.6 -0.9 5.2 -2 3.3 -2.1 3.9 -2.4 7.5 -3.9 1.4 -0.5 3.2 -1.4 4 -1.9 0.8 -0.5 2.2 -1.2 3 -1.6 1.6 -0.6 3.4 -1.7 9.7 -5.8 2.4 -1.5 4.6 -2.7 5 -2.7 2.4 0 32.7 -22.1 48.1 -35.1 l10.2 -8.5 12.2 -1.2 c8.7 -0.9 42 -1.2 114.6 -1.2 l102.2 0 0 -105.5 0 -105.5 -61.8 0 -61.9 0 0 -27.2 c0 -28.4 -1.1 -41.1 -5.4 -63.6 -12.8 -67.3 -44.4 -125.6 -94.5 -174.2 -36.9 -35.8 -78.4 -61.5 -125.5 -77.5 -39.1 -13.3 -67.4 -17.9 -109.4 -18 -23 0 -37.6 1 -51 3.5 -2.7 0.5 -7.7 1.4 -11 2 -3.3 0.6 -7.1 1.3 -8.5 1.5 -5.4 0.8 -16.6 3.7 -29.2 7.6 -67 20.6 -127.9 63.3 -170 119.4 -29.8 39.7 -50.2 84.6 -59.3 130.3 -5.1 25.3 -5.9 34.8 -6 66.4 l0 29.8 -65.2 0 -65.3 0 0 105.5 0 105.5 117.1 0 117 0 5.7 5.3 c19 17.9 49.3 38.7 75.2 51.6 38.9 19.4 75.3 29.5 123.5 34.5 7.7 0.8 75.6 -0.3 76.8 -1.2z"/>
  <path d="M350.3 740.3 c-0.7 -0.2 -1.3 -1.6 -1.3 -2.9 0 -2.6 0.8 -2.8 7.1 -2.5 4.4 0.3 5.4 -0.9 5.4 -6.9 0 -3.5 0.4 -4.5 1.8 -4.8 2.5 -0.5 5.4 2.3 6.2 5.9 1.4 6.4 -4.9 12 -13.5 11.8 -2.5 0 -5.1 -0.3 -5.7 -0.6z"/>
  <path d="M419.8 739.4 c-3.1 -1.3 -3.8 -2.1 -3.8 -4.5 0 -4 3 -5.5 5.4 -2.7 2.4 2.8 10.6 2.1 14 -1.1 1.4 -1.3 3.3 -2.1 4.5 -1.9 2.1 0.3 2.1 0.4 0.4 3.7 -1 1.9 -3 4.3 -4.5 5.4 -3.5 2.6 -11.3 3.2 -16 1.1z"/>
  <path d="M447 724.1 l0 -17.1 3.5 0 3.5 0 -0.2 16.8 -0.3 16.7 -3.2 0.3 -3.3 0.3 0 -17z"/>
  <path d="M458 740.7 c0 -0.4 9.7 -28.9 10.5 -30.9 0.4 -1.1 1.8 -1.8 3.6 -1.8 2.5 0 2.9 0.4 2.9 2.6 0 1.5 -1.1 5.7 -2.5 9.5 l-2.5 6.9 4.5 0 c2.5 0 4.5 -0.2 4.5 -0.4 0 -0.2 -0.7 -2.3 -1.5 -4.6 -1.9 -5.5 -1.2 -8 2.3 -8 2.6 0 2.9 0.7 7.2 13 2.4 7.1 4.2 13.1 3.9 13.4 -0.3 0.3 -2.1 0.3 -4.1 0 -2.9 -0.5 -3.7 -1.2 -4.5 -3.8 -0.8 -3 -1 -3.1 -7.6 -3.4 -6.5 -0.3 -6.6 -0.2 -7.3 2.5 -1 4.2 -2.3 5.3 -6 5.3 -1.9 0 -3.4 -0.1 -3.4 -0.3z"/>
  <path d="M495.4 740.1 c-0.2 -0.2 -0.4 -7.1 -0.4 -15.2 l0 -14.8 2.9 -2 c1.6 -1.2 3.4 -2.1 4 -2.1 0.7 0 1.1 4.5 1.1 13.9 l0 13.8 4 0.7 c3.7 0.6 4 0.9 4 3.7 l0 3 -7.6 -0.3 c-4.1 -0.2 -7.7 -0.5 -8 -0.7z"/>
  <path d="M569 739.3 c-7 -3.6 -10.4 -13.1 -8 -21.8 1.8 -6.5 5.6 -9.5 12.9 -10.4 4.5 -0.5 6.1 -0.4 6.1 0.5 0 0.7 1.3 1.1 3.2 1 2.6 -0.1 3.6 0.5 5.5 3.3 3.1 4.6 3 6.1 -0.8 6.1 -2.2 0 -4 -0.9 -5.9 -3 -3.6 -3.9 -7.2 -3.9 -11.1 -0.1 -2.4 2.4 -2.9 3.8 -2.9 7.6 0 2.5 0.7 5.9 1.5 7.4 2.7 5.4 10.9 6 13.5 1.1 2.3 -4.3 7.1 -1 5.5 3.9 -1.6 5.1 -13.2 7.7 -19.5 4.4z"/>
  <path d="M596.4 740.1 c-0.2 -0.2 -0.4 -4.9 -0.4 -10.3 0 -9.1 0.1 -9.8 2 -9.8 1.3 0 2 0.7 2 2 0 1.1 0.7 2 1.5 2 1.1 0 1.5 1.2 1.5 5 l0 5 7.5 0 7.5 0 0 3.5 0 3.5 -10.6 -0.2 c-5.8 -0.2 -10.7 -0.5 -11 -0.7z"/>
  <path d="M631.7 740.3 c-1.3 -1.2 -0.7 -4.3 0.8 -4.3 0.8 0 1.5 -0.4 1.5 -1 0 -0.5 1.5 -1 3.4 -1 4.3 0 5.7 -1.7 6.5 -8.2 0.6 -5.1 0.7 -5.3 4 -5.6 l3.3 -0.3 -0.4 7 c-0.4 7.7 -2 10.4 -7.5 12.7 -3.4 1.5 -10.5 1.9 -11.6 0.7z"/>
  <path d="M657 732.3 c0 -6.7 0.3 -8.3 1.5 -8.3 0.9 0 1.5 -0.9 1.5 -2.5 0 -2.4 0.1 -2.4 6.4 -1.8 5.8 0.5 6.5 0.4 7.5 -1.5 2.2 -4.1 -1.2 -7 -6.9 -5.7 -2.4 0.5 -3 1.2 -3 3.1 0 2.2 -0.4 2.5 -3.2 2.2 -3.3 -0.3 -3.3 -0.4 -3.6 -6.1 l-0.3 -5.9 10.1 0.4 c9.7 0.3 10.3 0.4 12.6 3.1 3.1 3.7 3.1 8.2 0 11 l-2.3 2.1 2.8 2.4 c2.3 1.9 2.9 3.2 2.9 6.3 0 7.5 -6.2 10.5 -20.3 9.7 l-5.7 -0.3 0 -8.2z m17.8 0.5 c3.3 -3.3 -0.7 -7.8 -7 -7.8 l-3.8 0 0 4.5 0 4.5 4.8 0 c2.6 0 5.3 -0.5 6 -1.2z"/>
  <path d="M380.6 738.3 c-3.8 -2 -6.6 -8.2 -6.6 -14.6 0 -5.6 1.6 -11.7 3 -11.7 0.5 0 2.2 -1.3 3.8 -3 2.7 -2.6 3.8 -3 8.7 -3 9 0 14.2 3.6 13 9 -0.8 3.9 -2.9 3.8 -6.6 -0.1 -2.5 -2.7 -3.4 -3.1 -6.5 -2.6 -4.7 0.8 -6.2 2.1 -7.4 6.8 -1.4 5.1 0.2 11.1 3.5 13.7 3.1 2.5 3.2 4.4 0.1 5.8 -1.8 0.8 -3 0.8 -5 -0.3z"/>
  <path d="M623.9 733.8 c-1.2 -2.2 -1.4 -23.1 -0.3 -25 0.3 -0.4 1.8 -0.8 3.5 -0.8 l2.9 0 0 10.8 c0 7.9 -0.4 11.8 -1.6 14 -1.8 3.8 -2.9 4 -4.5 1z"/>
  <path d="M533.6 728.5 l-3.7 -4.5 2.3 -2.9 c1.3 -1.6 3.6 -3.3 5.2 -3.6 2.4 -0.6 3.4 -0.2 6.4 2.9 l3.6 3.6 -4.4 4.5 c-2.4 2.5 -4.7 4.5 -5 4.5 -0.3 0 -2.3 -2 -4.4 -4.5z"/>
  <path d="M411 722.5 c0 -5.5 2.2 -11.3 4.7 -12.2 1 -0.3 2.5 -1.2 3.3 -1.9 2.1 -1.7 11 -3 11 -1.5 0 0.6 1.6 1.1 3.5 1.1 2.9 0 3.9 0.6 5.5 3.3 3 4.9 2.6 6.7 -1.3 6.7 -2.6 0 -3.6 -0.6 -4.5 -2.4 -1.3 -3 -6.9 -4.4 -10.2 -2.6 -2.4 1.3 -5 6.6 -5 10.4 0 2.4 -1.6 3.6 -5.1 3.6 -1.6 0 -1.9 -0.7 -1.9 -4.5z"/>
  <path d="M350.5 724.8 c-4.4 -1.5 -6.4 -3.6 -7.1 -7.4 -1.3 -7 5.1 -11.9 14.7 -11.2 6.4 0.5 10 2.7 9.2 5.8 -0.6 2.3 -4.9 3.2 -6.4 1.4 -1.5 -1.9 -7.3 -1.8 -8.9 0.1 -1.7 2.1 -0.5 4.5 3 5.8 2.1 0.8 3 1.8 3 3.4 0 1.3 -0.4 2.3 -0.9 2.3 -0.5 0 -1.5 0.2 -2.3 0.4 -0.7 0.3 -2.6 0 -4.3 -0.6z"/>
  <path d="M645 712.5 l0 -6.5 3 0 3 0 0 6.5 0 6.5 -3 0 -3 0 0 -6.5z"/>
  <path d="M395.8 666.7 c-0.6 -0.8 -2.2 -1.1 -3.5 -0.9 -3.8 0.7 -14.8 -5.4 -20.7 -11.4 -10.8 -11 -15.9 -24.8 -16 -43.9 0 -12.8 1.4 -20.5 5.8 -30.1 2.7 -5.8 17.9 -21.3 21 -21.4 1.1 0 2.7 -0.7 3.7 -1.6 2.3 -2.1 13.5 -3.9 23.9 -3.9 7.8 0.1 9.3 0.4 16.3 3.7 4.7 2.3 7.7 4.3 7.7 5.3 0 0.8 0.9 1.5 1.9 1.5 2.8 0 9.6 8.4 13.5 16.5 11.6 24 7.5 56.3 -9.2 73.4 -6.3 6.4 -13.1 10.3 -21.9 12.6 -7.3 1.9 -20.8 2 -22.5 0.2z m23.7 -13.9 c5.5 -3.4 12.5 -9.8 15.1 -14 4.9 -7.7 6.7 -15.4 6.8 -28.3 0 -13.6 -1.4 -19.8 -6.7 -28.5 -3.6 -6.2 -11.1 -12.3 -17.6 -14.5 -5.2 -1.8 -15.9 -2 -21.6 -0.4 -15.8 4.3 -25.9 20.8 -25.9 42.4 0 19.3 5.7 32.1 17.8 40.4 5.3 3.7 10.3 4.9 20.3 5 6.8 0.1 8.8 -0.3 11.8 -2.1z"/>
  <path d="M648.3 666.5 c-17 -4.6 -29.9 -18.4 -34.7 -37.1 -2.1 -8.1 -2.2 -29.5 -0.1 -37.3 2 -7.7 5.3 -15.1 7.1 -15.8 0.8 -0.3 1.4 -1.1 1.4 -1.9 0 -0.8 0.5 -1.4 1 -1.4 0.6 0 1 -0.7 1 -1.6 0 -3.6 14 -13.4 21.4 -15 1.7 -0.3 3.6 -1.1 4.3 -1.6 0.7 -0.5 5.6 -1.2 11 -1.5 8.3 -0.4 10.8 -0.2 16.1 1.6 7.7 2.6 12.9 5.8 18.2 11.1 4.6 4.6 9.7 14.1 10.6 20 l0.7 4.1 -6.8 -0.3 -6.7 -0.3 -2 -5.2 c-2.2 -6 -7.9 -12.3 -14 -15.4 -5.9 -3.1 -19.5 -3.8 -26.6 -1.5 -9.8 3.3 -17.2 10.9 -21.4 22 -2 5.1 -4.9 28.7 -3.7 29.6 0.3 0.3 1.2 2.9 1.8 5.8 1.7 8 5.9 15.7 11.3 20.8 6.8 6.4 12.5 8.7 22.8 9.2 7.4 0.4 9.2 0.1 13.5 -1.9 6.7 -3.1 14 -10.7 16.2 -16.9 l1.8 -5 7.2 0 7.2 0 -1.6 5.3 c-2.3 7.8 -5 12.5 -10.7 18.5 -5.6 6 -11.6 9.5 -20.3 11.7 -7.1 1.9 -19.1 1.8 -26 0z"/>
  <path d="M191 666.3 c0 -0.4 0 -23 0 -50 l0 -49.3 -18.2 -0.2 -18.3 -0.3 -0.3 -4.8 c-0.2 -2.7 0.2 -5.5 0.9 -6.3 1 -1.2 8 -1.4 43 -1.4 l41.9 0 0 6.5 0 6.5 -17.5 0 -17.5 0 -0.2 49.8 -0.3 49.7 -6.7 0.3 c-3.8 0.2 -6.8 -0.1 -6.8 -0.5z"/>
  <path d="M260.5 665.8 c-0.3 -0.7 -0.4 -25.6 -0.3 -55.3 l0.3 -54 9.5 -0.3 c5.2 -0.1 10.5 -0.7 11.7 -1.3 1.4 -0.8 6.8 -1 16 -0.7 10.9 0.4 15 1 19.4 2.7 12.4 4.7 19.7 15 20.6 29.1 1.1 14.8 -4.9 25.8 -18.2 33.5 -2.1 1.3 -2.5 0.4 12.6 28.1 5.5 10 9.9 18.4 9.9 18.8 0 0.3 -3.6 0.6 -7.9 0.6 l-8 0 -7.9 -14.7 c-4.4 -8.2 -9.6 -18.1 -11.6 -22 l-3.6 -7.3 -13.5 0 c-7.4 0 -13.8 0 -14.2 0 -0.5 0 -0.8 9.8 -0.8 21.8 l-0.1 21.7 -6.7 0.3 c-4.8 0.2 -6.9 -0.1 -7.2 -1z m56.4 -61.3 c3.8 -4 5.1 -6.2 6 -10.5 2.4 -11 -1.1 -19.7 -9.8 -24.2 -5.2 -2.7 -5.7 -2.8 -22 -2.8 l-16.6 0 0 21.6 0 21.6 18.8 -0.4 18.8 -0.3 4.8 -5z"/>
  <path d="M477 612.2 c0 -51 0.1 -55 1.8 -56.5 1.4 -1.3 5 -1.5 21.7 -1.6 11 -0.1 22.7 0.4 26 1 17.3 3.1 27.8 16.3 27.8 34.9 0 11.6 -2.7 18.7 -9.8 25.6 -8.2 8.1 -13.4 9.7 -33 10 -8.8 0.2 -17 0.3 -18.2 0.4 l-2.3 0 0 20.5 0 20.5 -7 0 -7 0 0 -54.8z m55.1 -3.6 c6.7 -6.4 8.2 -10.1 7.7 -20.1 -0.3 -7.3 -0.7 -8.8 -3.3 -12.6 -5.2 -7.4 -8.4 -8.4 -28.2 -8.7 l-17.3 -0.3 0 23 0 23.1 18.3 0 18.2 0 4.6 -4.4z"/>
  <path d="M575.5 665.8 c-0.3 -0.7 -0.4 -26 -0.3 -56.3 l0.3 -55 6.8 -0.3 6.7 -0.3 0 56.6 0 56.5 -6.5 0 c-4.3 0 -6.7 -0.4 -7 -1.2z"/>
  <path d="M717.2 665.3 c0.6 -2.1 30.8 -83.4 37.1 -99.8 l4.3 -11 7.8 0 7.9 0 3.2 8.5 c1.8 4.7 2.9 8.7 2.4 8.8 -1.7 0.7 -0.9 4.2 0.9 4.2 1.3 0 5.1 9.2 18.5 44.8 9.2 24.6 16.7 45 16.7 45.5 0 0.4 -3.3 0.7 -7.4 0.7 l-7.4 0 -5.7 -16 -5.8 -16 -23.2 0 c-21.2 0 -23.3 0.2 -24 1.8 -0.4 0.9 -2.6 7.2 -5 13.9 -6.2 17.4 -5.3 16.3 -13.7 16.3 -6.2 0 -7 -0.2 -6.6 -1.7z m64.1 -53 c-1.9 -5.4 -6 -16.9 -9.1 -25.6 -3 -8.6 -5.7 -15.6 -5.8 -15.4 -0.2 0.2 -4.2 10.9 -8.8 23.8 -4.6 12.9 -8.7 24.2 -9.1 25.2 -0.7 1.6 0.6 1.7 17.8 1.7 l18.6 0 -3.6 -9.7z"/>
  <path d="M834.3 666.3 c-1 -0.4 -1.3 -12.6 -1.3 -56.4 l0 -55.9 7 0 7 0 0 50 0 50 26.4 0 26.4 0 0.5 5.8 c0.2 3.1 0.3 6 0 6.5 -0.5 0.8 -64 0.9 -66 0z"/>
  <path d="M624.6 509 c-11.6 -2.1 -21.9 -9.7 -26.5 -19.6 -3.8 -7.9 -4.1 -12.1 -4.1 -56.4 0 -48.5 0.4 -52.7 6.3 -63.4 4.3 -7.8 10.3 -12.6 15.8 -12.6 2.8 0 3.9 -0.4 3.9 -1.5 0 -1.2 2 -1.5 11.3 -1.7 15.7 -0.2 16.5 -0.1 23.4 3.3 7.4 3.6 12.4 9.1 15.5 16.8 1.9 4.8 2.2 8.1 2.6 22.9 l0.4 17.2 -15.5 0 -15.6 0 -0.3 -15.1 -0.3 -15.1 -2.8 -2.4 c-3.6 -3 -6.8 -3 -10.4 0 l-2.8 2.4 0 47.1 c0 46.8 0 47.1 2.2 49.2 1.3 1.4 3.5 2.2 5.8 2.3 3 0.1 4.2 -0.5 5.9 -2.7 1.9 -2.6 2.2 -4.5 2.6 -19 l0.5 -16.2 4 -0.7 c2.2 -0.4 9.1 -0.7 15.3 -0.7 l11.4 -0.1 -0.4 19.8 c-0.3 17.9 -0.6 20.2 -2.7 25.7 -3.4 8.6 -10.7 15.5 -19.1 18.3 -7.5 2.5 -19.3 3.5 -26.4 2.2z"/>
  <path d="M265 430.9 l0 -77 28.3 0.3 c27.2 0.3 28.4 0.4 33.5 2.7 6.5 2.9 10.3 7.2 13.3 14.8 2 5 2.3 7.7 2.3 19.8 0.1 13.3 0 14.3 -2.6 19.5 -2 4.1 -4 6.3 -7.2 8.4 l-4.5 2.8 4 2.7 c8.2 5.6 11.6 13.8 12.6 31.1 1.2 21.9 -3.9 38.3 -14.3 45.9 -7.1 5.2 -12.9 6.1 -40.6 6.1 l-24.8 0 0 -77.1z m44.9 47.7 c3 -3.1 4 -8.2 4.1 -18.8 0 -17.8 -2.6 -22.7 -12.6 -23.1 l-5.9 -0.2 -0.3 22.3 -0.2 22.2 6.3 0 c5.4 0 6.7 -0.4 8.6 -2.4z m-0.5 -69.9 c1.9 -2.5 2.1 -4.2 2.1 -14.9 0 -11.5 -0.1 -12.1 -2.4 -13.9 -1.9 -1.6 -3.7 -1.9 -8 -1.7 l-5.6 0.3 -0.3 15.5 c-0.1 8.5 0 16 0.3 16.8 0.3 0.9 2.1 1.2 6.1 1 4.9 -0.3 6 -0.7 7.8 -3.1z"/>
  <path d="M356 433.2 c0 -71.3 0.1 -75 1.8 -76.5 1.5 -1.3 4.9 -1.8 15.5 -2.4 l13.7 -0.6 0 77.1 0 77.2 -15.5 0 -15.5 0 0 -74.8z"/>
  <path d="M397.4 504.3 c0.3 -2.1 4.4 -35.1 9.1 -73.3 4.7 -38.2 8.8 -70.9 9 -72.6 l0.5 -3.1 25.2 -0.6 c13.8 -0.4 25.2 -0.6 25.4 -0.4 0.2 0.1 1.2 7.7 2.3 16.7 1.2 9.1 3.9 30.5 6.1 47.5 6.1 47.3 11 86.2 11 88 0 1.4 -1.8 1.5 -14.7 1.3 l-14.8 -0.3 -1.5 -13 -1.5 -13 -11.5 0.4 c-6.3 0.2 -11.7 0.5 -11.9 0.7 -0.3 0.3 -3 20.7 -3.1 23.7 0 1.5 -1.4 1.7 -15.1 1.7 l-15.1 0 0.6 -3.7z m52.8 -47.8 c0.3 -0.3 0.1 -2.9 -0.3 -5.8 -0.5 -2.8 -2.4 -19.3 -4.4 -36.6 -3.2 -29.1 -3.9 -33.2 -4.9 -32 -0.4 0.4 -7.6 69.2 -7.6 72.7 0 2.1 0.4 2.2 8.3 2.2 4.6 0 8.6 -0.2 8.9 -0.5z"/>
  <path d="M498 431 l0 -77 16 0 15.9 0 1 3.8 c0.5 2 4.8 19 9.6 37.7 4.7 18.6 8.8 34.1 9 34.4 0.3 0.2 0.5 -16.7 0.5 -37.7 l0 -38.2 14.5 0 14.5 0 0 77 0 77 -15 0 -14.9 0 -1.4 -4.7 c-0.8 -2.7 -5.4 -19.8 -10.3 -38 -4.8 -18.3 -9.1 -33.3 -9.6 -33.3 -0.4 0 -0.8 17.1 -0.8 38 l0 38 -14.5 0 -14.5 0 0 -77z"/>
  <path d="M681.4 502.8 c0.3 -2.9 4.5 -36.6 9.2 -74.8 7.4 -60.3 8.8 -69.8 10.5 -71.5 1.8 -1.9 3.5 -2 25.4 -2.3 18.7 -0.2 23.6 0 23.9 1 0.4 1.3 4.7 35 13.6 106.3 2.7 21.5 5.2 40.7 5.5 42.8 l0.5 3.7 -15 0 c-8.2 0 -15 -0.3 -15 -0.7 0 -0.5 -0.7 -6.2 -1.5 -12.8 -0.8 -6.5 -1.5 -12.1 -1.5 -12.2 0 -0.2 -5.3 -0.3 -11.9 -0.3 l-11.8 0 -1.2 11.3 c-1.8 16.4 0.1 14.7 -16.8 14.7 l-14.5 0 0.6 -5.2z m52.3 -49.5 c-0.4 -2.1 -2.2 -17.7 -4.2 -34.8 -3.8 -34.1 -4.4 -38 -5.2 -37.1 -0.3 0.3 -1.2 6.7 -1.9 14.3 -2.1 22.5 -5.4 53.5 -6 57.6 l-0.6 3.7 9.2 0 9.3 0 -0.6 -3.7z"/>
  <path d="M370.1 325.5 c-3.5 -0.8 -6.6 -1.7 -6.9 -1.9 -0.7 -0.8 4 -7.5 8.4 -12 6.2 -6.1 12.4 -8.6 21.9 -8.5 4.4 0 9.3 0.6 10.9 1.2 l3 1.3 -6.1 2.2 c-3.4 1.2 -7.2 3.1 -8.4 4.1 l-2.3 1.8 3.5 -0.5 c1.9 -0.2 3.9 -0.8 4.4 -1.3 1.8 -1.3 9.5 -2.3 9.5 -1.1 0 2.1 -9.2 11.1 -13.4 13.2 -5.8 2.7 -16.2 3.4 -24.5 1.5z"/>
  <path d="M638.8 325.9 c-6.8 -1.6 -17.9 -10.3 -16.4 -12.8 1 -1.6 8.3 -1.3 14 0.4 7.8 2.4 6.4 1.1 -3.4 -3 -4.9 -2.1 -9 -4.1 -9 -4.4 0 -2.2 3.1 -3.1 11 -3.1 9.6 0 14 1.7 20.6 8 3.9 3.6 9.4 10.7 9.4 12.1 0 1.1 -13.3 3.9 -18.2 3.8 -2.4 -0.1 -6 -0.5 -8 -1z"/>
  <path d="M461 323.2 c0 -0.4 0.6 -1.4 1.3 -2 0.9 -1 1.2 -8.3 1.2 -29.5 l0.1 -28.2 8.9 -0.1 c5 -0.1 7.7 0.1 6 0.3 -1.6 0.3 -3.6 0.9 -4.2 1.5 -1.8 1.5 -1.9 52.8 -0.1 54.6 0.7 0.7 4.3 1.2 9.3 1.2 8.2 0 12.9 -1.4 15.5 -4.5 2.5 -3 6 -0.4 6 4.4 l0 3.1 -22 0 c-12.1 0 -22 -0.4 -22 -0.8z"/>
  <path d="M558.4 322.1 c2.1 -2.3 2 -2.8 -4.5 -16.6 -4.3 -9.3 -5.2 -10.5 -7.4 -10.5 -2.9 0 -3.4 -1.7 -0.6 -2.2 1.9 -0.3 1.7 -0.9 -2 -8.7 -4.7 -10 -4.8 -10.1 -6 -7.8 -1.2 2 -2.9 2.3 -2.9 0.5 0 -0.7 1.2 -4.1 2.6 -7.5 2.2 -5.1 3.1 -6.3 5 -6.3 1.5 0 2.5 0.8 3 2.3 0.4 1.2 6.4 14 13.5 28.5 11.4 23.5 13.1 26.5 15.9 27.5 1.6 0.6 3 1.5 3 1.9 0 0.4 -4.8 0.8 -10.7 0.8 -10.4 0 -10.6 0 -8.9 -1.9z"/>
  <path d="M420.5 315.3 c-3.2 -3.6 -8.3 -8.4 -11.2 -10.6 -5 -4 -6.9 -7.7 -3.9 -7.7 1.8 0 10 6.2 18.8 14.1 6.8 6 6.8 6 5 8.4 -0.9 1.4 -1.9 2.4 -2.2 2.4 -0.3 0 -3.2 -3 -6.5 -6.6z"/>
  <path d="M598.7 319.6 c-1.5 -2.2 -1.4 -2.5 1.2 -5 1.5 -1.4 3.2 -2.6 3.9 -2.6 0.7 0 1.2 -0.6 1.2 -1.2 0 -1.2 11.2 -10.8 12.5 -10.8 0.4 0 2.3 -1.4 4.4 -3.1 2.9 -2.3 4.7 -3 7.1 -2.7 3.1 0.3 3 0.4 -5.2 6.5 -4.6 3.4 -9.6 7.5 -11.2 9.2 -1.7 1.7 -4 3.1 -5.3 3.1 -1.5 0 -2.1 0.4 -1.7 1.4 0.5 1.4 -3.3 7.6 -4.7 7.6 -0.4 0 -1.4 -1.1 -2.2 -2.4z"/>
  <path d="M350 307.8 c-1.9 -0.5 -3.8 -1.3 -4.2 -1.7 -1.2 -1.1 8.3 -9.7 12.1 -11 1.9 -0.6 4.8 -1.1 6.6 -1.1 3.5 0 12.5 2.8 12.5 3.9 0 1.5 -7.7 8.1 -11.2 9.6 -4.2 1.7 -10.5 1.8 -15.8 0.3z"/>
  <path d="M661.4 307 c-2.2 -1.1 -5.5 -3.6 -7.3 -5.4 l-3.3 -3.4 3 -1.6 c4.6 -2.4 16.8 -2.2 21 0.4 1.7 1.1 3.2 2.4 3.2 3 0 0.5 0.6 1 1.3 1 1.3 0 4.7 3.1 4.7 4.2 0 1.2 -9.5 3.8 -13.9 3.8 -2.6 0 -6.4 -0.9 -8.7 -2z"/>
  <path d="M603.8 301.3 c-4.4 -5 -5.9 -12.2 -3.8 -17.7 0.7 -1.9 1.7 -2.6 3.5 -2.6 5.3 0 8.2 13 4.5 20 -1.3 2.5 -2.2 2.5 -4.2 0.3z"/>
  <path d="M418.6 297.8 c-1 -3.8 -0.7 -7.6 1 -11.8 1.4 -3.4 2.1 -4 4.5 -4 4.9 0 6.6 7.4 3.2 14.5 -1.4 2.9 -2.2 3.5 -4.9 3.5 -2.4 0 -3.3 -0.5 -3.8 -2.2z"/>
  <path d="M393.3 293.2 c-2.9 -2.1 -5.2 -4.5 -5.3 -5.4 0 -2.5 0.4 -2.3 8 2.4 4.3 2.6 6.6 4.6 6.3 5.5 -0.8 2.1 -3.4 1.4 -9 -2.5z"/>
  <path d="M399.7 288.9 c-10.3 -6.8 -14.7 -15.7 -14.7 -29.8 0 -7.2 0.3 -9.1 1.8 -10.4 2.9 -2.6 5.6 -2 10.9 2.2 8.9 7 13.3 13.8 14.8 22.8 0.7 4.5 -1.4 8.3 -4.7 8.3 -1.2 0 -1.6 0.6 -1.2 1.8 0.3 0.9 -0.5 -0.1 -1.7 -2.3 -2.6 -4.8 -2.7 -5 -3.5 -4.2 -0.3 0.3 0.4 3.6 1.6 7.2 1.2 3.6 2 6.8 1.8 7.1 -0.3 0.2 -2.6 -1 -5.1 -2.7z"/>
  <path d="M354.3 288.5 c-12.4 -3.8 -23.2 -14.3 -30 -29.1 -1.7 -3.8 -2.2 -5.9 -1.5 -6.6 0.6 -0.6 6.2 -0.9 14.9 -0.6 14.2 0.4 14.2 0.4 26.1 6.1 7.9 3.8 16.2 14.9 16.2 21.5 0 2.3 -0.2 4.2 -0.5 4.2 -0.2 0 -4.7 -2.2 -9.8 -5 -5.2 -2.7 -9.7 -5 -10.1 -5 -2 0 0.6 2.4 8.3 7.7 4.7 3.2 8.7 6.4 8.9 7.1 0.5 1.7 -16.8 1.5 -22.5 -0.3z"/>
  <path d="M656.2 287.3 c0.2 -2.2 0.9 -2.9 3.1 -3.1 1.8 -0.2 2.7 -0.9 2.7 -2.1 0 -1.1 2.2 -3.4 5.2 -5.5 6.7 -4.7 3.7 -4.8 -4.6 -0.1 -7.4 4.1 -8.6 4.3 -8.6 1.1 0 -1.3 -0.7 -2.9 -1.5 -3.6 -0.8 -0.7 -1.5 -1.9 -1.5 -2.7 0 -2.5 9.3 -10.8 16 -14.2 6.3 -3.3 6.9 -3.4 21.6 -3.9 17.7 -0.5 18 -0.4 13.8 8.3 -4.2 8.9 -10.6 16.8 -17.4 21.3 -7.5 5.1 -14.3 7.2 -22.7 7.2 -6.4 0 -6.4 0 -6.1 -2.7z"/>
  <path d="M625.1 288.1 c-1.1 -0.7 -1.1 -1.5 -0.2 -4.1 1.4 -4.1 1.4 -5 0.1 -5 -0.6 0 -1.6 1.1 -2.2 2.5 -0.8 1.8 -1.9 2.5 -3.8 2.5 -2.5 0 -2.8 -0.4 -3.4 -4.6 -1.2 -8.8 2.9 -18.1 11.3 -25.7 5.5 -4.9 11.5 -8.1 13.6 -7.3 1.7 0.6 2.9 10 2.2 18.2 -0.6 8.1 -4.5 16.2 -9.9 20.9 -4.4 3.7 -5.4 4 -7.7 2.6z"/>
 </g>
 <g fill="#1c1610">
  <path d="M556.5 825.1 c-0.6 -0.6 -3 -1.1 -5.5 -1.4 -4.3 -0.3 -4.2 -0.4 1.1 -0.5 3.1 -0.1 7.1 0.1 9 0.5 2.8 0.5 3 0.7 1.4 1.4 -2.8 1.1 -4.9 1.1 -6 0z"/>
  <path d="M450.7 822.4 c-0.4 -0.4 -1.9 -0.8 -3.4 -0.9 -5.9 -0.4 -6.4 -0.5 -5.8 -1.5 0.3 -0.5 2.4 -1 4.6 -1 2.4 0 3.8 0.4 3.4 1 -0.3 0.6 0.3 1 1.4 1 1.1 0 2.3 0.5 2.6 1 0.7 1.1 -1.8 1.4 -2.8 0.4z"/>
  <path d="M427.1 817.4 c-3 -0.8 -5.7 -1.7 -6 -1.9 -0.2 -0.3 2.2 -0.5 5.5 -0.5 5.3 0 6 0.2 6.1 2 0.1 1.1 0.1 2 0 1.9 -0.1 0 -2.7 -0.7 -5.6 -1.5z"/>
  <path d="M602.4 817.1 c0.4 -0.5 -0.4 -1.2 -1.6 -1.4 -1.3 -0.2 0.2 -0.5 3.2 -0.6 5.5 -0.1 5.9 1.1 0.7 2.3 -1.8 0.4 -2.6 0.3 -2.3 -0.3z"/>
  <path d="M473.8 810.5 c-0.2 -0.3 -6 -1.3 -12.9 -2.3 -9 -1.3 -13.2 -1.5 -15.2 -0.8 -2.4 0.9 -3.1 0.7 -4.4 -0.9 -1.3 -1.8 -1.2 -2 0.6 -2.3 1.1 -0.2 5.8 0.4 10.3 1.2 4.6 0.8 13.4 2.2 19.7 3.1 6.3 0.8 11.7 1.8 12 2 0.2 0.3 -1.8 0.5 -4.6 0.5 -2.7 0 -5.2 -0.2 -5.5 -0.5z"/>
  <path d="M409.5 796.1 c-3.3 -0.9 -7.8 -2.5 -10 -3.5 -2.2 -1 -6.7 -2.8 -10.1 -4.1 -3.4 -1.3 -7 -2.8 -8 -3.4 -3 -1.7 -14.2 -6.1 -16.3 -6.4 -3.1 -0.5 -10.1 -4.1 -10.1 -5.3 0 -0.6 -1.9 -2.1 -4.2 -3.4 -2.4 -1.4 -5.6 -3.3 -7.3 -4.3 -4.1 -2.4 -13.3 -6.7 -14.5 -6.7 -0.6 0 -1 -0.6 -1 -1.3 0 -0.7 -1.8 -2.6 -4.1 -4.3 -2.2 -1.6 -6.5 -4.8 -9.6 -7.1 -3.1 -2.3 -6 -4 -6.4 -3.7 -0.5 0.3 -0.9 0 -0.9 -0.5 0 -0.6 -0.6 -1.1 -1.3 -1.1 -0.7 0 -2 -0.8 -2.8 -1.7 -0.9 -1 -2.4 -2.3 -3.4 -2.8 -0.9 -0.6 -1.6 -1.8 -1.4 -2.7 0.3 -1.3 2.5 0 9.9 5.9 16.2 13 38.2 26.9 58.5 36.9 16.5 8.1 37.9 16.8 46.8 18.9 1.5 0.4 3 1.1 3.3 1.6 0.7 1.1 0.2 1.1 -7.1 -1z"/>
  <path d="M623 794.7 c0.8 -0.9 3.1 -1.9 5 -2.3 2.4 -0.4 3.1 -0.3 2.1 0.4 -1.1 0.8 -1.1 1 0 1.5 0.8 0.3 0 0.6 -1.8 0.6 -1.7 0.1 -4 0.4 -5 0.7 -1.6 0.6 -1.6 0.5 -0.3 -0.9z"/>
  <path d="M693.2 761.6 c4.1 -3.9 6.8 -4.7 6.4 -1.8 -0.2 0.9 -1.1 1.7 -2.2 1.7 -1 -0.1 -2.1 0.2 -2.4 0.5 -0.3 0.3 -1.6 1.1 -3 1.8 -1.9 1 -1.6 0.4 1.2 -2.2z"/>
  <path d="M732.3 752.3 c0.9 -1.1 1.7 -2.7 1.7 -3.7 0 -0.9 0.5 -1.4 1 -1.1 0.6 0.3 1 0.1 1 -0.5 0 -0.7 0.7 -0.9 1.6 -0.6 0.8 0.3 1.2 0.2 0.9 -0.4 -0.3 -0.6 0.1 -1 0.9 -1 2.6 0 1.8 1.7 -2.1 4.7 -5.3 4.2 -7.2 5.1 -5 2.6z"/>
  <path d="M724.5 739.1 c2.2 -2.3 5.2 -5.1 6.6 -6.1 l2.6 -1.9 0.1 2.9 c0 2.1 -0.5 3.1 -2.1 3.7 -1.2 0.4 -2.6 0.6 -3 0.5 -0.4 -0.1 -2.5 1 -4.5 2.5 l-3.7 2.7 4 -4.3z"/>
  <path d="M349.5 740 c-1.1 -0.4 -3.1 -1.9 -4.4 -3.4 -2 -2.1 -2.2 -2.8 -1.1 -4.1 1.7 -2.1 4.6 -1.9 7.9 0.6 3.3 2.4 7.9 2.2 9.5 -0.3 1.6 -2.7 -0.4 -5.1 -5.4 -6.5 -5.8 -1.7 -7 -3 -3.7 -3.9 1.5 -0.3 2.4 -1 2.1 -1.5 -1.6 -2.6 9 0.2 12.2 3.2 2.6 2.4 4 7.2 2.7 9.1 -0.5 0.9 -1 -0.1 -1.3 -2.7 -0.6 -4.7 -3.3 -5.6 -3.8 -1.3 -0.4 3.6 -4.5 7.4 -8.9 8.3 -4.4 0.8 -3.3 2.2 2.2 2.8 3.7 0.3 3.6 0.4 -1 0.5 -2.7 0 -5.9 -0.3 -7 -0.8z"/>
  <path d="M383.1 739.5 c-2.6 -1.2 -3.1 -1.8 -2.2 -2.8 0.6 -0.8 0.7 -1.7 0.3 -2.2 -0.4 -0.4 0.4 -0.4 1.7 0 l2.3 0.7 -2.3 -3.2 c-2 -2.6 -2.4 -4.3 -2.3 -10 0.1 -7.5 -1.1 -8.5 -4.8 -3.9 l-2 2.4 0.7 -3 c1.6 -7.2 7.2 -11.5 15.2 -11.5 5.6 0 8.3 0.7 8.3 2.1 0 0.6 -0.8 0.5 -1.9 -0.1 -3.8 -2 -7.5 -1.2 -10.9 2.3 -1.8 1.8 -3 3.6 -2.7 3.9 0.4 0.3 0.1 2.4 -0.5 4.7 -2 7.4 1.1 14.1 7.1 15.6 2.1 0.5 3.4 0 5.8 -2.2 3.4 -3.1 4.3 -7.4 2.8 -14.6 -0.5 -2.4 -0.5 -3.7 0.1 -3.3 0.6 0.3 1.3 -0.5 1.6 -1.9 0.9 -3.6 2.4 -3.1 4.6 1.8 4.3 9.4 1.3 21.3 -6.4 24.8 -4.9 2.2 -9.9 2.3 -14.5 0.4z"/>
  <path d="M419.3 739.1 c-6.5 -3 -10.6 -12.7 -6.6 -15.6 2.5 -1.9 5 -0.7 5.7 2.7 0.3 1.6 1.5 4.2 2.6 5.8 1.8 2.5 1.8 2.8 0.2 2.6 -3.3 -0.2 -1.9 3.6 1.8 5 1.9 0.7 2.8 1.3 2 1.3 -0.8 0 -3.4 -0.8 -5.7 -1.8z"/>
  <path d="M447.2 732.8 l0.2 -8.3 0.3 7.3 c0.6 10.7 1.8 8.8 1.6 -2.4 -0.1 -7.7 0.1 -9.5 1.2 -9 0.8 0.3 1.6 0 1.9 -0.7 0.6 -1.5 0.9 3.6 0.8 13.3 l-0.1 7.5 -3 0.3 -3.1 0.3 0.2 -8.3z"/>
  <path d="M486.2 740.3 c-3.2 -0.6 -6 -6.9 -3.9 -8.6 2.4 -1.9 2.8 -5.9 1 -10.4 -0.8 -2.4 -1.9 -4.3 -2.4 -4.3 -1.3 0 -2.1 3.9 -1.4 6.9 0.4 1.8 0.2 3.2 -0.6 3.7 -0.8 0.4 -0.9 0.3 -0.5 -0.5 0.7 -1.1 -1.9 -9.6 -3.5 -11.5 -0.4 -0.5 -1.3 1 -2 3.3 -0.7 2.2 -1.6 4.1 -2 4.1 -0.5 0 -0.5 -1 0 -2.3 0.5 -1.3 0.9 -4 0.9 -6.1 0 -3.7 0 -3.7 -2.4 -2.1 -2.8 1.8 -2.8 1.8 -0.9 -2.9 1.5 -3.4 1.8 -3.6 6.3 -3.6 l4.7 0 5.8 16.3 c3.1 8.9 5.7 16.8 5.7 17.5 0 1.2 -0.6 1.3 -4.8 0.5z m2.5 -4.3 c-1.3 -3.4 -2.2 -3.8 -3.1 -1.2 -0.3 0.9 -0.9 2.3 -1.2 3 -0.4 0.8 0.4 1.2 2.4 1.2 2.9 0 3 -0.1 1.9 -3z"/>
  <path d="M495.4 740.1 c-0.2 -0.2 -0.4 -6.7 -0.4 -14.5 0 -13.8 0 -14 2.7 -16.8 4.9 -5.1 5.3 -4.2 5.3 11.2 l0 14 7.6 0 7.5 0 -0.3 3.3 -0.3 3.2 -10.8 0 c-6 0 -11.1 -0.2 -11.3 -0.4z m10.6 -2.1 c-1.4 -0.4 -2.1 -0.8 -1.6 -0.9 0.6 -0.1 0.2 -0.7 -0.7 -1.3 -1 -0.8 -1.9 -3.4 -2.3 -6.7 -0.4 -3 -1.3 -6.1 -2 -6.9 -1.8 -1.8 -1.8 -3.6 0.1 -5.2 0.9 -0.7 1.5 -2.9 1.5 -5.2 0 -3.9 -0.1 -4 -2.1 -2.6 -2 1.3 -2.2 2.2 -2.1 11.8 0.1 5.8 0.2 12.2 0.2 14.3 l0 3.7 5.8 -0.1 c4.3 -0.1 5.1 -0.3 3.2 -0.9z"/>
  <path d="M569.7 739.8 c-1.5 -0.5 -2.5 -1.4 -2.1 -1.9 0.3 -0.5 1 -0.6 1.7 -0.2 0.6 0.3 0.1 -0.8 -1.2 -2.5 l-2.2 -3.2 2.8 0.4 c3.8 0.5 11.3 3.4 9.1 3.5 -2.1 0.1 -2.4 3.1 -0.4 3.1 0.8 0 1.8 0.5 2.1 1 0.8 1.3 -6.1 1.2 -9.8 -0.2z"/>
  <path d="M596.9 740.5 c-0.1 0 -0.3 -7.8 -0.5 -17.2 l-0.4 -17.3 3.5 0 3.5 0 -0.1 13.3 c-0.1 7.2 -0.4 12 -0.6 10.5 -0.3 -1.8 -1 -2.6 -2.3 -2.5 -1.3 0.1 -1.9 1.2 -2.4 4.5 -1 7.4 -1.1 7.2 4.8 7.2 3 0 5.7 0.4 6.1 0.9 0.3 0.6 -2 0.9 -5.5 0.8 -3.3 -0.1 -6 -0.2 -6.1 -0.2z"/>
  <path d="M615 739.5 c1.1 -1.3 0.7 -1.5 -2.6 -1.6 -2.2 -0.1 -3.1 -0.3 -2.1 -0.6 0.9 -0.2 1.7 -0.9 1.7 -1.4 0 -0.5 1.4 -0.9 3 -0.9 2.7 0 3 0.3 3 3 0 2.4 -0.4 3 -2.1 3 -1.8 0 -1.9 -0.2 -0.9 -1.5z"/>
  <path d="M629.2 739.3 c-4.3 -2.1 -5.6 -4.6 -4.4 -8.3 0.6 -1.6 0.7 -3.2 0.4 -3.6 -0.4 -0.3 0 -0.5 0.8 -0.2 0.8 0.3 2 -0.2 2.7 -1.1 1.1 -1.4 1.2 -1.1 1.3 1.5 0 4.1 2.7 6.4 7.6 6.5 3.3 0 3.6 0.2 1.7 0.9 -2.5 1 -3 2.6 -1 3.3 0.6 0.3 -0.1 0.6 -1.6 0.6 -1.6 0.1 -2.6 0.5 -2.2 1.1 0.9 1.5 -1.6 1.2 -5.3 -0.7z"/>
  <path d="M657 726 c0 -8.6 0.4 -13.9 0.9 -13.1 0.5 0.7 2 1.4 3.5 1.4 2.2 0 2.6 0.4 2.6 2.8 0 2.7 0.3 2.9 3.6 2.9 2.1 0 3.3 0.4 2.9 1 -0.3 0.6 -2.2 1 -4.1 1 -2.1 0 -3.3 0.4 -2.9 1 0.3 0.6 2.5 1 4.9 1 7.5 0 11.4 6.2 6.6 10.5 -2.4 2.2 -1.9 3.1 0.9 1.5 1.2 -0.6 2.1 -0.7 2.1 -0.1 0 0.5 1 0.7 2.3 0.4 l2.2 -0.5 -2.2 2 c-2.6 2.3 -9.4 3.5 -17.6 3 l-5.7 -0.3 0 -14.5z m13.6 12.1 c-0.4 -0.5 0 -1.2 0.6 -1.4 0.7 -0.3 -0.8 -0.6 -3.4 -0.6 -2.7 -0.1 -4.9 -0.5 -4.9 -1.1 -0.1 -0.5 -0.3 -1.4 -0.4 -2 -0.1 -0.5 -0.3 -1.7 -0.4 -2.5 0 -0.8 -0.7 -1.5 -1.5 -1.5 -0.8 0 -1.7 -0.6 -1.9 -1.2 -0.3 -0.7 -0.6 1.5 -0.6 5 l-0.1 6.2 6.6 0 c3.7 0 6.3 -0.4 6 -0.9z m4.2 -5.3 c3.3 -3.3 -0.7 -7.8 -7 -7.8 l-3.8 0 0 4.5 0 4.5 4.8 0 c2.6 0 5.3 -0.5 6 -1.2z"/>
  <path d="M585.5 736 c0.2 -1.1 -0.3 -2.7 -1.1 -3.5 -2.2 -2.1 -0.9 -3.5 3.2 -3.5 3.2 0 3.5 0.2 2.8 2.3 -1.6 5.1 -5.7 9.1 -4.9 4.7z"/>
  <path d="M648.5 734.5 c1.4 -4.4 1.6 -7.1 0.6 -9.5 -0.5 -1.4 -1 -2 -1 -1.3 -0.1 0.7 -0.7 1 -1.5 0.7 -0.9 -0.4 -1.5 0.7 -1.9 3.7 -0.3 2.3 -1 4.6 -1.6 5.2 -0.8 0.8 -0.8 0.1 -0.1 -2.4 0.6 -1.8 1 -8.2 1 -14.1 l0 -10.8 3.5 0 3.5 0 0 12.8 c-0.1 9.6 -0.4 13.3 -1.6 15.2 -1.1 1.8 -1.3 1.9 -0.9 0.5z m0.2 -24.7 c-0.2 -1.3 -0.4 -0.3 -0.4 2.2 0 2.5 0.2 3.5 0.4 2.3 0.2 -1.3 0.2 -3.3 0 -4.5z"/>
  <path d="M34 612.5 l0 -120.5 64.8 0.2 64.7 0.3 -64.2 0.2 -64.3 0.3 0 119 0 119 119.6 0 c79.4 0 119.3 0.3 118.9 1 -0.4 0.7 -41.5 1 -120.1 1 l-119.4 0 0 -120.5z"/>
  <path d="M541 728.6 l4.5 -4.7 -2.4 -2 c-1.3 -1.1 -2.7 -1.6 -3 -1.1 -1 1.5 -3.8 2.1 -4.8 1.1 -0.6 -0.6 -1.4 -0.4 -2.3 0.6 -1 1.2 -1 1.8 0.1 3.2 1.3 1.5 1.2 1.5 -0.8 0.2 -1.3 -0.8 -2.3 -1.6 -2.3 -1.9 0 -0.3 1.8 -2.5 4 -5 l3.9 -4.5 4.7 4.6 4.7 4.7 -3.4 3.7 c-1.9 2 -4.3 4.2 -5.4 4.7 -1.1 0.6 0 -1.1 2.5 -3.6z"/>
  <path d="M988.8 650.8 c0.1 -45.3 0.3 -96.7 0.5 -114.3 0.1 -17.6 0.3 19.4 0.5 82.3 0.1 62.8 -0.1 114.2 -0.5 114.2 -0.5 0 -0.7 -37 -0.5 -82.2z"/>
  <path d="M987.3 725.5 c0 -2.2 0.2 -3 0.4 -1.7 0.2 1.2 0.2 3 0 4 -0.3 0.9 -0.5 -0.1 -0.4 -2.3z"/>
  <path d="M49.5 613 c0 -58 0.1 -81.8 0.2 -52.7 0.2 29 0.2 76.4 0 105.5 -0.1 29 -0.2 5.2 -0.2 -52.8z"/>
  <path d="M433.2 715.6 c-0.6 -1.4 -2.3 -2.7 -4.1 -3.1 -1.9 -0.4 -2.8 -1.1 -2.5 -2 0.3 -0.7 0.1 -1.6 -0.5 -2 -4.2 -2.6 4.1 -3.5 8.9 -1 3 1.5 6 6.1 6 8.9 0 1 -1.3 0.3 -3.7 -1.9 -4.4 -4 -7.9 -4.9 -4.6 -1.2 2.7 3 3.6 4.7 2.5 4.7 -0.5 0 -1.4 -1.1 -2 -2.4z"/>
  <path d="M588.7 714.7 c-1.4 -3.3 -2 -3.7 -3.9 -3.1 -1.3 0.4 -4.4 0.8 -6.9 0.8 l-4.6 0.1 2 -2.7 c2.8 -3.8 5.2 -4.3 8.9 -2.1 3.5 2 7.2 7.5 6.5 9.5 -0.2 0.7 -1.1 -0.4 -2 -2.5z"/>
  <path d="M974.6 714.9 c-1 -5.2 -0.7 -185.7 0.3 -186.4 0.6 -0.3 1 35.4 1.1 94.5 0 52.2 -0.1 95 -0.3 95 -0.3 0 -0.7 -1.4 -1.1 -3.1z"/>
  <path d="M361.1 713.9 c-1 -1.8 -1 -2.3 0 -3 0.7 -0.4 1.7 -0.5 2.3 -0.2 0.5 0.4 0.7 -0.1 0.3 -1 -1 -2.5 1.9 -2.1 3.7 0.5 0.9 1.2 1.6 3 1.6 4 0 2.7 -6.1 2.5 -7.9 -0.3z"/>
  <path d="M987.3 711.5 c0 -2.2 0.2 -3 0.4 -1.7 0.2 1.2 0.2 3 0 4 -0.3 0.9 -0.5 -0.1 -0.4 -2.3z"/>
  <path d="M393.5 666.9 c-5.7 -1.4 -6.6 -2.7 -2.7 -4.1 1.8 -0.7 3.2 -2 3.2 -2.9 0 -0.9 1 -2.1 2.3 -2.7 2 -1 2 -1.1 0.2 -1.1 -1.1 0 -2.9 0.4 -3.9 0.8 -2.4 0.9 -5.6 -1.5 -5.6 -4.1 0 -2.2 0.2 -2.2 7 0.2 3.3 1.1 8.6 2 13 2.1 4.1 0.1 6.4 0.4 5 0.6 -1.4 0.3 -3.2 1.1 -4 1.8 -2.3 1.9 -6 2.8 -6 1.4 0 -0.8 -0.4 -0.9 -1.3 0 -1 0.8 -1.7 0.7 -2.5 -0.1 -0.6 -0.6 -1.5 -0.9 -1.9 -0.5 -0.4 0.4 -0.1 1.3 0.5 1.9 0.7 0.7 1.2 2.2 1.2 3.3 0 1.3 1 2.7 2.3 3.3 l2.2 1.1 -2.5 -0.1 c-1.4 0 -4.3 -0.4 -6.5 -0.9z"/>
  <path d="M191 666.3 c0 -0.4 0 -23 0 -50 l0 -49.3 -18.2 -0.2 -18.3 -0.3 0 -6 0 -6 43.3 -0.3 43.2 -0.2 0 6.5 0 6.5 -3.1 0 c-2.6 0 -2.9 -0.2 -2 -1.4 0.7 -0.8 1.1 -3.1 0.9 -5.1 l-0.3 -3.6 -38.3 0.1 c-41.4 0.1 -42.2 0.2 -42.2 5.2 l0 2.8 18 0 18 0 0 50 0 50 5.5 0 5.5 0 0 -49 c0 -32.3 0.3 -49 1 -49 0.7 0 0.9 16.8 0.8 49.8 l-0.3 49.7 -6.7 0.3 c-3.8 0.2 -6.8 -0.1 -6.8 -0.5z"/>
  <path d="M260.7 666.4 c-1.1 -1.1 -0.8 -32.7 0.3 -34.4 0.6 -1 1 4.2 1 15.8 l0 17.2 5.5 0 5.5 0 0 -21.7 c0 -11.9 0.3 -21.4 0.6 -21 0.3 0.3 0.7 10.4 0.7 22.4 l0.1 21.8 -6.5 0.3 c-3.6 0.2 -6.8 0 -7.2 -0.4z"/>
  <path d="M477 612.2 c0 -51.9 0.1 -55 1.8 -56.5 1.6 -1.5 4.6 -1.7 21.8 -1.7 11 0 22.7 0.5 26 1.1 10.1 1.8 19.6 8.6 23.9 16.9 0.9 1.7 1.1 3 0.6 3 -0.5 0 -1.2 -0.8 -1.5 -1.8 -0.9 -2.8 -9.8 -11.9 -13.4 -13.7 -1.8 -0.9 -3.8 -1.3 -4.4 -0.9 -0.6 0.4 -0.8 0.3 -0.5 -0.3 0.4 -0.7 -1.1 -1.1 -4.3 -1.1 -3.1 0 -5 0.5 -5 1.2 0 0.7 -0.3 0.7 -0.8 -0.2 -0.6 -0.8 -4 -1.2 -11.2 -1.3 -8.4 0 -10.6 0.3 -11.6 1.5 -0.6 0.9 -2.4 1.6 -4 1.5 -2.4 0 -2.6 -0.2 -0.9 -0.8 1.5 -0.6 1.1 -0.9 -2 -1.4 -2.2 -0.4 -5.9 -0.7 -8.2 -0.7 l-4.2 0 0.1 53.8 c0.2 47.4 0.4 53.8 1.7 54.9 1.4 1.1 1.2 1.2 -1.1 1.3 l-2.8 0 0 -54.8z"/>
  <path d="M489.8 646.3 c0.3 -22 0.8 -24.3 5.4 -24.3 1 0 1.8 -0.7 1.8 -1.5 0 -0.8 -0.5 -1.5 -1.1 -1.5 -0.6 0 -0.9 -0.9 -0.6 -2 0.4 -1.6 0 -2 -1.8 -2 -1.3 0 -2.6 -0.7 -2.9 -1.6 -0.3 -0.9 -0.6 -11.9 -0.6 -24.5 l0 -22.9 6.3 0.2 6.2 0.2 -5.7 0.3 -5.8 0.4 0 22.9 0 23 18.3 0.1 c12.4 0.1 16.9 0.4 14.2 1 -2.2 0.4 -8.3 0.8 -13.5 0.8 l-9.5 0.1 -0.2 3.3 c-0.2 2.6 0.2 3.4 2.4 4.5 1.5 0.6 3.7 1.2 5 1.2 1.3 0 2.3 0.5 2.3 1 0 0.6 -3.8 1 -9.5 1 l-9.5 0 0 20.5 c0 11.3 -0.3 20.5 -0.7 20.5 -0.5 0 -0.7 -9.3 -0.5 -20.7z"/>
  <path d="M575.3 665.4 c-0.3 -0.8 -0.3 -26.1 0.1 -56.2 l0.7 -54.7 6.4 -0.3 6.5 -0.3 0 56.6 0 56.5 -6.5 0 c-5 0 -6.7 -0.4 -7.2 -1.6z m12.7 -54.9 c0 -53.6 0 -54.6 -1.9 -53.5 -2.5 1.3 -3.4 1.3 -2.6 0 0.7 -1.1 -2.4 -1.3 -4.9 -0.4 -1.4 0.6 -1.6 6.3 -1.6 54.5 l0 53.9 5.5 0 5.5 0 0 -54.5z"/>
  <path d="M643 664.7 c-14.8 -6.1 -24.9 -18.4 -29.6 -35.8 -2.1 -7.9 -2.3 -27 -0.5 -34.9 2.6 -10.9 10.6 -26 13.8 -26 0.8 0 1.1 0.5 0.8 1 -0.3 0.6 0.4 1 1.7 1.1 1.3 0 1.7 0.3 1 0.6 -2.3 0.9 0.8 3.3 4.3 3.3 l3.3 0 -4.5 6.8 c-2.5 3.7 -4.7 6.9 -4.9 7.1 -0.8 0.9 1.9 -7.5 2.8 -8.7 0.6 -0.7 0.8 -1.6 0.4 -1.9 -0.9 -1 -6.5 -1.1 -6.3 -0.2 0.1 0.4 -0.7 1.4 -1.7 2.2 -1.9 1.4 -1.9 1.5 0.2 2.1 1.2 0.4 2.2 1.2 2.2 1.7 0 1.2 -4.2 0.1 -5.1 -1.3 -0.7 -1.1 -3.5 2 -4.8 5.5 -0.6 1.6 -1.1 4.8 -1.1 7.2 0 3.6 0.4 4.5 2.1 5 1.7 0.6 1.9 0.9 0.8 1.6 -0.8 0.5 -1.6 0.3 -2.1 -0.4 -0.7 -1.1 -1.4 20 -0.9 26.3 0.6 8.5 8.2 23.3 12.6 24.6 2.2 0.7 6.3 4.6 5.5 5.3 -0.9 0.9 7.8 6.1 13.2 8.1 2.9 1 4.6 1.9 3.8 1.9 -0.8 0 -4 -1 -7 -2.2z"/>
  <path d="M799.2 661.3 c-2.8 -7.9 -2.9 -8.6 -1.2 -9 1 -0.2 2 0.8 2.7 2.7 0.7 1.8 0.8 3 0.1 3 -1.1 0 0 4.3 1.3 4.8 0.5 0.2 0.7 0.8 0.3 1.3 -0.3 0.5 2.1 0.9 5.5 0.9 3.4 0 6.1 -0.3 6.1 -0.7 0 -2.2 -3.6 -10.3 -4.5 -10.3 -2.7 0 -4.4 -7.9 -1.9 -8.7 0.8 -0.3 8.4 18.7 8.4 21 0 0.4 -3.3 0.7 -7.4 0.7 l-7.3 0 -2.1 -5.7z"/>
  <path d="M833 664.4 c0 -2.1 0.3 -2.5 1.8 -1.9 0.9 0.4 7.4 0.9 14.3 1.1 7 0.2 13.9 0.8 15.5 1.4 1.8 0.7 2.9 0.7 3.3 0.1 0.7 -1.1 29.1 -2 29.1 -0.8 0 0.4 0.5 0.7 1 0.7 0.6 0 1 -2.1 1 -4.6 l0 -4.5 -27.5 0.3 c-17.9 0.2 -27.5 0 -27.5 -0.7 0.1 -0.5 0.7 -2.1 1.5 -3.5 1.4 -2.5 1.4 -2.5 1.5 -0.2 l0 2.2 26.4 0 26.4 0 0.5 5.8 c0.2 3.1 0.3 6 0 6.5 -0.2 0.4 -15.5 0.7 -33.9 0.7 l-33.4 0 0 -2.6z"/>
  <path d="M435.3 657.4 c2.4 -2.6 3.5 -4.6 3.2 -5.6 -0.4 -1.1 0.2 -1.8 2.1 -2.2 1.4 -0.4 2.8 -0.5 3 -0.3 0.7 0.7 -3.5 5.5 -7.9 8.8 l-4.2 3.3 3.8 -4z"/>
  <path d="M662 658.5 c0 -0.7 -1 -1.6 -2.2 -2.1 -1.7 -0.6 -0.6 -0.9 4.2 -1.1 6.9 -0.4 9 -1.1 15.7 -5.5 5.4 -3.6 5.9 -3.5 3.2 0.5 -3.6 5 -4.6 5.7 -7.6 5.5 -5.8 -0.4 -9.3 0.2 -9.3 1.6 0 0.7 -0.9 1.6 -2 1.9 -1.2 0.3 -2 0 -2 -0.8z"/>
  <path d="M36.4 642.5 c0 -7.7 0.2 -10.7 0.3 -6.7 0.2 4 0.2 10.3 0 14 -0.2 3.7 -0.3 0.4 -0.3 -7.3z"/>
  <path d="M696.2 651.3 c1.5 -1.6 3 -4.5 3.3 -6.6 0.4 -2.1 1.4 -4.5 2.2 -5.3 1.3 -1.2 1.3 -1.5 -0.1 -2 -0.9 -0.3 -1.6 -1.1 -1.6 -1.7 0 -0.7 0.4 -0.7 1.2 0.1 1.6 1.6 2.8 1.5 2.8 -0.2 0 -2.1 -3.2 -3 -4.2 -1.1 -0.5 0.8 -1.6 1.5 -2.3 1.5 -1.7 0 -2 -1.6 -0.5 -2.3 0.6 -0.3 0.5 -0.4 -0.2 -0.3 -0.7 0.1 -1.7 1.2 -2.3 2.4 -0.5 1.2 -1.5 2.2 -2.2 2.2 -0.7 0 -1.3 0.5 -1.3 1 0 0.6 -0.4 1 -0.9 1 -0.5 0 -0.1 -2 0.8 -4.5 l1.6 -4.5 7.2 0 7.2 0 -1.6 5.3 c-2.5 8.4 -8 17.7 -10.5 17.7 -0.7 0 0 -1.2 1.4 -2.7z"/>
  <path d="M835 637.8 c0 -5.1 -0.3 -19.6 -0.6 -32.3 -0.9 -31.8 -0.9 -36.1 0.3 -43 0.8 -4.6 1.1 4.6 1.2 39.3 0 24.8 -0.1 45.2 -0.4 45.2 -0.3 0 -0.5 -4.2 -0.5 -9.2z"/>
  <path d="M361.2 639.3 c-3.4 -7.7 -5.1 -13.9 -3.3 -12.9 0.6 0.4 1.1 0.1 1.1 -0.6 0.1 -2.1 2 1.8 2.2 4.5 0.2 1.9 0.7 2.3 2.3 2 1.8 -0.4 1.8 -0.3 0.2 0.7 -0.9 0.6 -1.4 1.6 -1.1 2.2 0.4 0.7 0.2 0.8 -0.4 0.4 -1.7 -1 -1.4 0.3 1.2 5.7 1.3 2.6 2 4.7 1.6 4.7 -0.4 0 -2.1 -3 -3.8 -6.7z"/>
  <path d="M790.4 636.6 c-0.3 -0.9 -1.5 -1.6 -2.6 -1.6 -1.7 0 -1.8 -0.3 -0.8 -1.4 1.4 -1.8 3.7 -1 4.6 1.6 0.7 2.4 -0.3 3.7 -1.2 1.4z"/>
  <path d="M451.5 633 c1 -3 1.4 -11.2 0.7 -12.4 -0.9 -1.7 -1 -6.6 -0.1 -6.6 0.5 0 0.9 0.6 1 1.3 0 0.6 0.4 0.3 0.9 -0.8 0.7 -1.9 0.8 -1.8 1.4 0.5 0.8 2.9 -2 18 -3.6 19.5 -0.7 0.7 -0.8 0.2 -0.3 -1.5z"/>
  <path d="M627.2 630.3 c-0.6 -1 -1.3 -3.3 -1.7 -5.1 -0.5 -2.6 -1 -3.2 -2.6 -2.7 -1.4 0.5 -1.9 0.1 -1.9 -1.4 0 -1.2 -0.5 -2.1 -1 -2.1 -0.6 0 -0.3 -1.1 0.5 -2.4 1 -1.5 1.5 -3.8 1.2 -5.8 -0.4 -2.9 1.8 -8.8 3.3 -8.8 0.3 0 0.6 4.4 0.7 9.8 0.1 5.3 0.8 12.1 1.6 15 1.5 5.4 1.4 6.4 -0.1 3.5z"/>
  <path d="M364.4 625.1 c-0.5 -3.1 -1 -3.8 -2.3 -3.3 -1.4 0.5 -1.4 0.4 -0.2 -1.1 0.7 -0.9 2 -1.7 2.8 -1.7 0.9 0 1.2 -0.6 0.8 -1.9 -0.4 -1.5 0 -1.8 2 -1.8 2.2 0 2.5 0.4 2.5 3.2 0 1.9 0.3 4 0.6 4.9 0.3 0.9 0.2 1.6 -0.4 1.6 -0.5 0 -1.2 -0.9 -1.5 -2 -0.6 -2.2 -2.6 -2.7 -2.8 -0.7 -0.1 0.6 0 2.4 0.1 4 0.2 4.1 -0.9 3.3 -1.6 -1.2z"/>
  <path d="M521 623.8 c2.4 -2 5.7 -2.3 8 -0.8 1.3 0.8 1.3 1 0 1.4 -0.8 0.3 -3.5 0.6 -5.8 0.8 -4.4 0.4 -4.4 0.4 -2.2 -1.4z"/>
  <path d="M798.7 622.9 c-0.4 -1.4 -1.8 -3.7 -3.1 -5.2 -2.3 -2.4 -2.7 -6.7 -0.6 -6.7 1 0 5.2 11.8 4.7 13.3 -0.2 0.6 -0.7 0 -1 -1.4z"/>
  <path d="M783.7 622.9 c0.9 -0.9 0.6 -2.8 -1.2 -7.5 -2.7 -7.1 -2.1 -8.7 1.6 -4.5 1.9 2.2 2.4 3.7 2.1 7 -0.2 2.3 0 4.1 0.5 4 1.8 -0.3 3.3 0.2 3.3 1.1 0 0.6 -1.7 1 -3.7 1 -2.8 0 -3.4 -0.3 -2.6 -1.1z"/>
  <path d="M538.3 619.1 c1.5 -1.8 2.4 -3.8 2.1 -4.3 -0.4 -0.7 -0.2 -0.8 0.4 -0.4 0.7 0.4 1.2 0.1 1.2 -0.8 0 -1.1 1 -1.6 3.2 -1.6 l3.2 0 -3.2 3.3 c-1.7 1.8 -4.6 4.1 -6.4 5.2 l-3.3 1.9 2.8 -3.3z"/>
  <path d="M355.6 616.9 c-0.9 -4.9 -0.7 -12.9 0.4 -12.9 0.6 0 1 3.3 1 8 0 4.4 -0.2 8 -0.4 8 -0.2 0 -0.6 -1.4 -1 -3.1z"/>
  <path d="M273.1 592.8 c-0.1 -11.3 0.3 -17.8 0.9 -17.8 1.2 0 1.2 30.6 0 33.5 -0.5 1.2 -0.9 -4.9 -0.9 -15.7z"/>
  <path d="M316.7 604.7 c4.2 -4.4 5.3 -6.4 6.3 -11.1 0.6 -3.2 1 -6.7 0.7 -7.7 -0.3 -1 -0.1 -1.9 0.4 -1.9 0.5 0 0.9 0.5 0.9 1 0 0.6 0.6 1 1.3 1 0.7 0 1.8 0.5 2.5 1.2 1.3 1.3 -0.2 4.8 -2.2 4.8 -0.7 0 -1.8 1.9 -2.5 4.1 -1.2 4 -9.3 13.9 -11.4 13.9 -0.5 0 1.3 -2.4 4 -5.3z"/>
  <path d="M749.3 608.5 c-1.8 -2 -1.6 -2.8 0.7 -2.2 1 0.3 2.1 0 2.3 -0.7 0.2 -0.6 0.7 -0.8 1.1 -0.4 0.8 0.7 -1.1 4.8 -2.2 4.8 -0.4 -0.1 -1.3 -0.7 -1.9 -1.5z"/>
  <path d="M551.5 602.8 c0.8 -2.1 1.3 -6.7 1.5 -14.3 0.1 -5.1 0.3 -5.6 1.1 -3.5 1.4 3.3 -0.2 16.5 -2.1 18.4 -0.8 0.8 -0.9 0.6 -0.5 -0.6z"/>
  <path d="M539.8 591 c0.3 -6.7 0 -8.8 -1.8 -12.6 -1.5 -3.1 -1.9 -4.9 -1.2 -5.6 1.2 -1.2 2.6 0.7 2.8 3.7 0.1 1.1 0.7 4.6 1.4 7.7 1.2 5.4 0.7 14.8 -0.8 14.8 -0.4 0 -0.6 -3.6 -0.4 -8z"/>
  <path d="M370 593.6 c0 -0.2 0.5 -1.7 1.1 -3.3 0.6 -1.5 1.1 -4.2 1.1 -6 0 -4 1.8 -6.6 4 -5.8 1.4 0.6 1.3 1.3 -1.3 6.2 -1.6 3 -2.9 6.1 -2.9 6.8 0 0.8 -0.4 1.7 -1 2 -0.5 0.3 -1 0.4 -1 0.1z"/>
  <path d="M747.6 583.3 c1.9 -5.3 3.8 -10.1 4.2 -10.7 0.3 -0.6 0.7 -1.8 0.9 -2.6 0.1 -0.8 1.5 -4.6 3.1 -8.5 l2.9 -7 7.8 0 7.8 0 3.4 9 c7.4 19.3 9.2 24.5 8.4 24.5 -0.4 0 -1.4 -1.8 -2.1 -4 -1.3 -3.9 -1.9 -4.4 -5.2 -4.1 -2.3 0.3 -4.9 -5.4 -3.8 -8.4 0.5 -1.2 1.4 -2.5 2 -2.7 0.7 -0.2 0.3 -2.4 -1.1 -6.5 l-2 -6.2 -3.7 0.6 c-4.2 0.6 -9.4 0.5 -10.1 -0.2 -0.5 -0.6 -2.8 4.2 -4.1 8.8 -0.7 2.1 -0.5 2.7 0.6 2.7 2.1 0 1.7 1.4 -0.8 2.5 -1.4 0.6 -2.9 2.7 -3.9 5.5 -0.8 2.5 -2.3 6.3 -3.2 8.4 -1 2.2 -2 5 -2.3 6.3 -0.4 1.3 -1 2.3 -1.5 2.3 -0.4 0 0.8 -4.3 2.7 -9.7z"/>
  <path d="M758.4 588.6 c1.2 -3.8 1.2 -4.5 0 -4.8 -1.1 -0.2 -1.1 -0.7 -0.1 -2.7 1.2 -2.5 4.3 -4.9 5.1 -4.1 0.6 0.7 -4.7 16 -5.6 16 -0.4 0 -0.1 -2 0.6 -4.4z"/>
  <path d="M692.4 588.3 c-1.9 -5.7 -6 -12.7 -8.5 -14.5 -3.7 -2.8 -3.7 -3.8 0.2 -3.8 2.4 0 2.9 0.3 2.1 1.3 -1.2 1.5 4.7 10.6 6.6 10 0.8 -0.3 1.2 0.7 1.2 3.1 l0 3.6 6 0 c3.3 0 6 0.4 6 1 0 0.6 -2.8 1 -6.5 1 -5.4 0 -6.7 -0.3 -7.1 -1.7z"/>
  <path d="M450.1 584.8 c-0.7 -2.3 -1.6 -3.6 -2 -3 -0.8 1.3 -2.6 0.3 -2.7 -1.5 -0.1 -0.7 -0.2 -2.3 -0.3 -3.5 -0.1 -1.3 -1.6 -4.1 -3.5 -6.3 -2.8 -3.3 -3.6 -3.8 -4.9 -2.7 -1.1 0.9 -1.7 1 -2.2 0.2 -0.4 -0.6 -1.3 -0.9 -2 -0.6 -0.9 0.3 -1.4 -0.8 -1.7 -3.5 -0.5 -5.6 1.3 -5.1 8.8 2.5 4.2 4.4 7.4 8.9 9.8 13.9 3.8 7.9 4.1 8.7 2.8 8.7 -0.5 0 -1.4 -1.9 -2.1 -4.2z"/>
  <path d="M319.4 574.7 c-2 -3.2 -2.1 -5.7 -0.3 -5.7 0.5 0 0.9 0.9 0.9 2 0 1.2 0.7 3.2 1.6 4.5 0.9 1.4 1.2 2.5 0.8 2.5 -0.5 -0.1 -1.8 -1.5 -3 -3.3z"/>
  <path d="M328 565.7 c-2.4 -2.6 -6.3 -5.7 -8.7 -6.8 -4.7 -2.1 -5.9 -2.2 -24.3 -2 -16.9 0.2 -15.5 0.4 -13.9 -1.5 2.1 -2.6 28.3 -1.5 36 1.5 5.7 2.2 13.1 7.7 15 11.3 1.8 3.3 0.6 2.6 -4.1 -2.5z"/>
  <path d="M845.7 559 c-0.6 -2.9 -0.8 -3 -6.7 -3 -3.3 0 -6 -0.4 -6 -1 0 -0.6 3 -1 7 -1 l7 0 0 4 c0 4.8 -0.5 5.1 -1.3 1z"/>
  <path d="M974.2 517.1 c0.2 -4.4 0.6 -7.7 1.1 -7.4 1.2 0.7 0.9 15.3 -0.4 15.3 -0.7 0 -0.9 -2.7 -0.7 -7.9z"/>
  <path d="M36.3 502 c0 -3.6 0.2 -5 0.4 -3.2 0.2 1.7 0.2 4.7 0 6.5 -0.2 1.7 -0.4 0.3 -0.4 -3.3z"/>
  <path d="M356.5 435.4 c0 -39.8 0.3 -72.4 0.8 -72.4 0.4 0 0.7 32.4 0.7 71.9 0 39.6 -0.3 72.2 -0.7 72.4 -0.5 0.3 -0.8 -32.1 -0.8 -71.9z"/>
  <path d="M385.5 507.4 c-0.7 -0.3 -0.9 -26.1 -0.7 -75.4 l0.2 -75 -5.2 -0.1 c-2.9 0 -4.7 -0.3 -4 -0.6 0.6 -0.2 1 -0.9 0.6 -1.4 -0.3 -0.5 1.9 -0.9 5 -0.9 l5.6 0 0 77 c0 42.4 -0.1 77 -0.2 76.9 -0.2 0 -0.7 -0.2 -1.3 -0.5z"/>
  <path d="M397 508 c0.1 -4.5 4 -31.4 4.6 -32 0.9 -0.9 1 4.5 0.1 9 -0.3 1.4 -1 6.8 -1.8 12 -0.7 5.2 -1.6 9.9 -2.1 10.5 -0.4 0.5 -0.8 0.7 -0.8 0.5z"/>
  <path d="M525.2 507.1 c-1.7 -1 -1.2 -8.3 0.6 -8.9 0.8 -0.2 1.2 1.1 1.2 4.7 0 2.8 -0.1 5.1 -0.2 5.1 -0.2 0 -0.9 -0.4 -1.6 -0.9z"/>
  <path d="M577.5 507.4 c-0.7 -0.3 -0.9 -26.1 -0.7 -75.4 l0.2 -75 -5 0 c-2.7 0 -5 0.5 -5 1 0 0.6 -0.7 1 -1.6 1 -0.8 0 -1.2 -0.5 -0.9 -1 0.5 -0.7 -1.6 -1 -6.2 -0.8 l-6.8 0.3 -0.3 36.6 c-0.2 30.2 -0.5 36.8 -1.6 37.2 -1.1 0.4 -2.1 -2.1 -4.1 -10.4 -1.5 -6 -3.1 -10.7 -3.5 -10.4 -0.4 0.3 -0.8 -1.1 -0.8 -3 0 -5.4 -3.2 -17.6 -4.5 -16.8 -0.6 0.4 -0.8 -0.2 -0.4 -1.6 0.8 -3.1 -5.2 -27.1 -6.6 -26.8 -0.7 0.1 -1.3 -1 -1.5 -2.5 -0.3 -2.7 -0.6 -2.8 -6 -2.9 -3.1 -0.1 -6 -0.1 -6.4 0 -0.5 0 -0.8 -0.3 -0.8 -0.8 0 -1.2 -11.5 -0.4 -14.1 0.9 -1.9 1 -1.9 2.7 -1.9 68.9 0 47.7 0.3 68.8 1.1 71 0.8 2.3 0.8 3.9 0.1 5.4 -0.6 1.2 -1.3 2.9 -1.5 3.7 -0.3 0.8 -0.6 -33 -0.6 -75.2 l-0.1 -76.8 16 0 15.9 0 1 3.8 c0.5 2 4.8 19 9.6 37.7 4.7 18.6 8.8 34.1 9 34.4 0.3 0.2 0.5 -16.7 0.5 -37.7 l0 -38.2 14 0 14 0 0.1 3.3 c0.2 4.9 0.7 150.7 0.5 150.6 0 0 -0.5 -0.2 -1.1 -0.5z"/>
  <path d="M850.4 476 c0.1 -17.5 0.4 -32.2 0.8 -32.5 0.4 -0.4 0.7 13.7 0.8 31.3 0 17.6 -0.4 32.3 -0.8 32.6 -0.5 0.3 -0.8 -13.8 -0.8 -31.4z"/>
  <path d="M265.2 430.7 l-0.2 -76.8 28.3 0.3 c28 0.3 28.2 0.3 33.7 2.9 3 1.5 6.5 3.7 7.7 5 2.4 2.7 6.7 11.9 5.5 11.9 -0.5 0 -1.4 -1.6 -2.1 -3.6 -2.1 -5.9 -9 -12 -14.7 -13.1 -2.7 -0.6 -16.6 -0.9 -30.9 -0.7 l-26 0.3 -0.5 75.3 -0.5 75.3 -0.3 -76.8z"/>
  <path d="M461.2 506.5 c1.1 -1.2 5.4 -1.4 8.3 -0.6 2.6 0.8 2.2 0.9 -2.9 1 -3.3 0.1 -5.7 -0.1 -5.4 -0.4z"/>
  <path d="M756.4 506.3 c1.2 -1.2 5.8 -1.5 5.1 -0.3 -0.3 0.5 -1.8 1 -3.2 1 -1.5 0 -2.3 -0.3 -1.9 -0.7z"/>
  <path d="M656.8 503.8 c0.8 -0.9 1.1 -2.1 0.8 -2.6 -0.7 -1.2 3.5 -4 5.1 -3.5 1.3 0.5 -1.2 3.4 -5.2 6.4 -1.8 1.3 -1.9 1.3 -0.7 -0.3z"/>
  <path d="M767.3 501.3 c-1.5 -0.5 -1.8 -9.3 -0.4 -9.3 0.8 0 2.6 8.9 1.9 9.5 -0.2 0.1 -0.9 0 -1.5 -0.2z"/>
  <path d="M546.5 498.9 c-1.8 -5.3 -8.3 -31.4 -7.9 -32.1 0.3 -0.4 1.4 -0.8 2.6 -0.8 1.4 0 1.8 0.5 1.4 1.6 -0.3 0.9 -0.6 1.8 -0.6 2 0 0.3 -0.5 0.2 -1 -0.1 -0.7 -0.4 -0.9 0.3 -0.5 2.2 1.4 6.2 2.9 9.8 4.2 10.6 1 0.6 1.3 1.7 0.8 3.4 -0.3 1.4 0.1 5 1 8 0.9 3 1.4 5.8 1.1 6.1 -0.3 0.2 -0.8 -0.1 -1.1 -0.9z"/>
  <path d="M524 466.7 c0 -16.5 0.4 -25.7 1 -25.7 0.6 0 1 -1.2 1 -2.6 0 -1.4 -0.4 -2.3 -1 -1.9 -1.2 0.7 -1.2 -7 -0.1 -10 1.4 -3.3 2.4 12.3 1.6 23.7 -0.4 5.7 -0.8 17.2 -1 25.7 -0.2 8.4 -0.6 15.6 -0.9 15.9 -0.4 0.3 -0.6 -11 -0.6 -25.1z"/>
  <path d="M297.3 483.2 c-1.4 -0.2 -2.5 -1.2 -2.8 -2.5 -0.3 -1.2 -0.4 -10.5 -0.3 -20.7 l0.3 -18.5 0.3 19.7 0.2 19.7 6.3 0.3 6.2 0.3 -4 1 c-2.2 0.6 -5 0.9 -6.2 0.7z"/>
  <path d="M627.3 481.8 c-1.1 -1.3 -2.4 -3.3 -2.8 -4.5 -0.3 -1.3 -0.9 -2.3 -1.3 -2.3 -0.4 0 -0.6 -19.9 -0.4 -44.2 0.3 -38.4 0.6 -44.6 2 -47.3 0.9 -1.6 1.5 -3.8 1.3 -4.7 -0.2 -1.5 0.5 -1.8 3.6 -1.8 2.2 0 4.8 0.7 5.9 1.5 1.8 1.4 1.8 1.4 -0.4 0.8 -3.5 -0.9 -7.9 1.5 -9.1 4.9 -1.4 3.8 -1.6 89.4 -0.2 92.9 1.2 3.3 3 4.7 7.7 5.8 l3.9 0.9 -4.1 0.1 c-3 0.1 -4.6 -0.5 -6.1 -2.1z"/>
  <path d="M671.3 475.3 c0.3 -7.1 0 -9.3 -1 -9.3 -1.7 0 -1.7 -1.7 -0.1 -2.2 0.9 -0.3 1.5 -3.9 1.9 -10.9 0.5 -8.6 0.6 -7.2 0.6 8.1 0.1 10.2 -0.3 19.6 -0.8 21 -0.5 1.7 -0.7 -0.6 -0.6 -6.7z"/>
  <path d="M163.1 477.5 c0.1 -4 0.1 -4 1.1 -1.2 0.7 2.1 0.7 3.2 -0.1 4 -0.8 0.8 -1.1 0 -1 -2.8z"/>
  <path d="M479.1 471.8 c0 -4.3 0.3 -7.8 0.8 -7.8 1.3 0 2.5 9.2 1.3 9.9 -0.6 0.3 -1.2 1.7 -1.5 3.1 -0.2 1.4 -0.5 -1 -0.6 -5.2z"/>
  <path d="M594.4 438.5 c0 -18.1 0.2 -25.7 0.3 -16.8 0.2 8.9 0.2 23.7 0 33 -0.1 9.2 -0.3 2 -0.3 -16.2z"/>
  <path d="M314.2 456 c-0.1 -3 -0.5 -6.6 -0.8 -8 -0.5 -1.9 -0.4 -2.2 0.5 -1.4 0.8 0.7 1.1 3.5 0.8 8 -0.3 6.5 -0.3 6.6 -0.5 1.4z"/>
  <path d="M865.4 459.2 c-0.8 -0.4 -1.2 -4.9 -1.2 -12.7 0 -7.4 0.3 -11 0.8 -9.4 0.8 2.8 2.5 22.9 1.9 22.9 -0.2 0 -0.9 -0.4 -1.5 -0.8z"/>
  <path d="M642.8 452.4 c-1.2 -1.2 -0.9 -6.9 0.4 -8.2 1.7 -1.7 8.3 -1.5 10.1 0.2 0.7 0.8 2.5 1.6 3.8 1.9 1.3 0.2 -0.6 0.5 -4.2 0.6 -6.7 0.1 -8.4 0.9 -9 4.4 -0.2 1.1 -0.7 1.5 -1.1 1.1z"/>
  <path d="M449.6 447.9 c-1 -3.6 -0.4 -7 1 -6.1 0.8 0.5 0.9 2.1 0.4 4.7 -0.6 3.8 -0.7 3.9 -1.4 1.4z"/>
  <path d="M477.4 448.5 c-0.4 -0.8 -1 -1.2 -1.5 -0.9 -0.5 0.3 -0.9 -2.4 -0.9 -6 0 -6.7 1.4 -8.9 2.4 -3.8 1.7 9.4 1.7 15.3 0 10.7z"/>
  <path d="M164 447.7 c0 -5.7 4.8 -36.7 5.9 -37.9 0.8 -0.9 5.1 0.1 5.1 1.2 0 0.4 -1 1 -2.3 1.4 -3.3 0.8 -4.7 7.7 -4.7 22.4 0 10.6 -0.2 11.8 -2 13 -1.6 1 -2 1 -2 -0.1z"/>
  <path d="M406 435.5 c0 -2.3 3.1 -23.9 3.5 -24.4 1.3 -1.3 -1.1 21.4 -2.6 23.9 -0.4 0.8 -0.8 1.1 -0.9 0.5z"/>
  <path d="M690.1 431.3 c0.1 -1 0.5 -2.9 0.9 -4.3 0.7 -2.1 0.8 -1.9 0.9 1.8 0.1 2.3 -0.3 4.2 -0.9 4.2 -0.5 0 -1 -0.8 -0.9 -1.7z"/>
  <path d="M552.4 407 c0 -13.5 0.2 -19 0.3 -12.2 0.2 6.7 0.2 17.7 0 24.5 -0.1 6.7 -0.3 1.2 -0.3 -12.3z"/>
  <path d="M474.7 425 c-0.3 -0.8 -0.9 -4.2 -1.3 -7.5 -0.6 -4.9 -0.8 -5.6 -1.5 -3.5 -0.6 1.9 -0.7 1.5 -0.6 -2 0.3 -7.3 2.1 -5.2 3.4 4 1.2 8.1 1.2 12.3 0 9z"/>
  <path d="M642 401.1 c0 -7.1 -0.3 -14.3 -0.6 -16 -0.6 -2.7 -0.4 -3 1.1 -2.5 1.6 0.7 1.7 2 1 15.5 l-0.7 14.8 15.4 0.4 15.3 0.3 -15.7 0.2 -15.8 0.2 0 -12.9z"/>
  <path d="M294 394 c0 -9.5 0.3 -17.1 0.6 -16.7 0.7 0.6 0.5 32.9 -0.1 33.6 -0.3 0.2 -0.5 -7.4 -0.5 -16.9z"/>
  <path d="M754.2 398.3 c-0.5 -3.8 -0.8 -7 -0.6 -7.2 0.9 -1 1.5 1 1.9 5.3 0.2 2.6 0.7 5.5 1 6.6 0.4 1.1 0.2 2 -0.3 2 -0.5 0 -1.4 -3 -2 -6.7z"/>
  <path d="M444 398.3 c-0.1 -0.5 -0.6 -5.1 -1.3 -10.4 l-1.3 -9.5 2.3 0.4 c1.3 0.2 2.1 0.7 1.9 1 -0.3 0.3 -0.1 1.1 0.6 1.9 0.9 1.1 0.7 1.2 -0.7 0.7 -1.7 -0.7 -1.8 -0.1 -1.1 7.9 0.4 4.8 0.5 8.7 0.2 8.7 -0.4 0 -0.6 -0.3 -0.6 -0.7z"/>
  <path d="M594 393.7 c0 -5.6 1.3 -11.7 2.6 -11.7 0.7 0 1.5 -0.6 1.8 -1.2 0.4 -0.7 0.4 0.2 0.1 2.1 -0.3 1.8 -0.5 4.3 -0.6 5.5 0 2 -0.1 2.1 -0.9 0.1 -0.7 -1.6 -0.9 -1.1 -0.9 2.2 -0.1 2.3 -0.5 4.5 -1.1 4.8 -0.6 0.3 -1 -0.4 -1 -1.8z"/>
  <path d="M695.3 388.8 c0.4 -1.8 1.3 -9.4 2.2 -16.8 1.3 -10.5 2.1 -13.9 3.6 -15.5 1.8 -1.9 3.3 -2 25.7 -2 l23.7 0 1.1 10 c0.6 5.5 1.4 11.9 1.8 14.3 0.5 2.8 0.4 4.2 -0.3 4.2 -0.6 0 -1.1 -1.7 -1.1 -3.7 0 -2.1 -0.7 -7.8 -1.5 -12.8 -0.8 -4.9 -1.5 -9.2 -1.5 -9.5 0 -1 -45.9 -0.5 -47 0.6 -1.1 1.1 -3.3 14.3 -4.5 27.2 -0.4 3.9 -1.2 7.2 -1.7 7.2 -0.6 0 -0.8 -1.4 -0.5 -3.2z"/>
  <path d="M469 383.6 c0 -1.8 -0.4 -5.6 -1 -8.4 -0.5 -2.8 -1.2 -7.3 -1.5 -9.9 -0.9 -7.2 -1.4 -8.3 -3.8 -8.3 -3.5 0 -6.7 -1.1 -6.1 -2.1 0.6 -1.1 10.4 -1.2 10.4 -0.1 0 1.3 3 25.6 3.5 29 0.4 1.9 0.2 3.2 -0.5 3.2 -0.5 0 -1 -1.5 -1 -3.4z"/>
  <path d="M413 379.2 c0 -1.2 1.9 -16.7 2.6 -20.9 l0.5 -3.3 15.2 0.1 15.2 0.2 -14 1.1 -14 1.1 -0.3 2.8 c-0.2 1.5 -0.7 2.7 -1.2 2.7 -0.4 0 -1.1 3.6 -1.5 8 -0.4 4.4 -1.1 8.3 -1.6 8.6 -0.5 0.3 -0.9 0.1 -0.9 -0.4z"/>
  <path d="M177.2 378 c0.3 -0.8 1.5 -4.6 2.8 -8.5 2.8 -8.7 4.1 -10.5 5.2 -7.6 0.9 2.5 0.1 4.8 -2.4 7.3 -1 1 -1.8 2.9 -1.8 4.1 0 1.3 -1 3.2 -2.2 4.3 -1.5 1.4 -2 1.5 -1.6 0.4z"/>
  <path d="M667.2 370.6 c-1.8 -3.9 -7.3 -9.6 -11.3 -11.7 -2.1 -1 -5.8 -1.9 -8.4 -1.9 -2.8 0 -4.4 -0.4 -4 -1 0.3 -0.5 -0.2 -1 -1.1 -1 -1.3 0 -1.5 -0.3 -0.7 -1.1 1.3 -1.3 7.8 0.3 13.5 3.2 4.8 2.5 10.8 7.7 10.8 9.5 0 0.8 0.4 1.4 0.8 1.4 0.5 0 1.4 1.1 2 2.5 0.6 1.4 0.8 2.5 0.3 2.5 -0.4 0 -1.3 -1.1 -1.9 -2.4z"/>
  <path d="M607.6 361.3 c2.3 -2.3 5.5 -4.5 7 -4.8 1.6 -0.3 3.7 -1 4.6 -1.6 3.1 -1.6 4.3 -1 4.4 2.1 0.2 3 0.1 3 -5.2 3 -2.9 0 -5.6 0.5 -5.9 1.1 -0.4 0.6 -1.4 0.8 -2.3 0.4 -0.9 -0.3 -2.7 0.4 -4.2 1.7 -1.4 1.3 -0.7 0.4 1.6 -1.9z"/>
  <path d="M193 337.1 c0 -0.6 1.7 -4.5 3.7 -8.6 2.5 -5 4.2 -7.4 5.1 -7 0.8 0.3 2 0.5 2.8 0.5 0.8 0 1.4 0.5 1.4 1 0 0.6 -0.3 0.9 -0.7 0.9 -2.4 -0.4 -3.3 0.4 -3.3 2.9 0 3.2 -1 4.7 -3 4.7 -0.9 0 -1.5 0.9 -1.5 2.5 0 1.4 -0.4 2.5 -1 2.5 -0.5 0 -1.6 0.4 -2.2 0.8 -0.8 0.5 -1.3 0.4 -1.3 -0.2z"/>
  <path d="M638.7 325.9 c-4.2 -1 -7.9 -3.1 -11.9 -6.8 -3.5 -3.1 -3.5 -4.1 -0.2 -3.5 1.5 0.3 2.3 0.1 2 -0.5 -0.9 -1.5 6.3 -2.6 7.7 -1.2 0.8 0.8 0.5 1.1 -1.2 1.1 -1.4 0 -2 0.4 -1.5 1.1 0.4 0.7 0 0.9 -1.4 0.5 -2.7 -0.9 -3.8 2.2 -1.5 4 3.9 3.1 5.6 3.6 10.5 2.9 4.4 -0.6 5 -0.5 4.5 0.8 -0.5 1.3 0.3 1.7 3.6 2 3.6 0.3 3.4 0.4 -1.3 0.4 -3 0.1 -7.2 -0.3 -9.3 -0.8z"/>
  <path d="M395 323.3 c0 -1.3 7.6 -8.3 9.1 -8.3 0.7 0 0.2 1.1 -1.2 2.6 -3.1 3.4 -7.9 6.8 -7.9 5.7z"/>
  <path d="M461.4 322.1 c1.4 -1.6 1.8 -5.3 2.5 -24.2 l0.8 -22.4 -0.1 23.1 -0.1 23.1 18.5 0.6 c10.1 0.4 18.8 0.3 19.2 -0.1 0.4 -0.4 -0.1 -1.5 -1.2 -2.4 -1.1 -1 -2.2 -1.3 -2.5 -0.8 -0.4 0.6 -1.1 1 -1.6 1 -0.5 0 0.3 -1.6 1.8 -3.5 1.5 -1.9 3.6 -3.5 4.6 -3.5 1.4 0 1.7 0.9 1.7 5.5 l0 5.5 -22.7 0 c-22.1 0 -22.6 0 -20.9 -1.9z"/>
  <path d="M512.9 320.8 c3.5 -3.3 6.2 -8.7 17.6 -35 3.8 -8.7 7.3 -15.8 7.8 -15.8 0.6 0 0.8 0.3 0.5 0.6 -0.3 0.3 0.4 1.6 1.7 3 1.2 1.3 3.3 5.2 4.6 8.7 1.3 3.4 2.5 6.5 2.7 7 0.2 0.4 0 0.7 -0.5 0.7 -1 -0.1 -7.3 -13.9 -7.3 -15.9 0 -2.5 -1.1 -0.5 -4.7 8.1 -1.9 4.6 -3.7 8.9 -4 9.6 -0.4 0.9 1.6 1.2 8.1 1.2 4.7 0 8.6 0.4 8.6 0.9 0 1 -8.2 2 -14.4 1.8 l-4 -0.2 -3.4 7.8 c-4.5 10.6 -5 13.9 -2.3 16.6 1.1 1.1 3.2 2.1 4.6 2.1 1.4 0 2.5 0.5 2.5 1 0 0.6 -4.2 1 -10.7 1 l-10.8 0 3.4 -3.2z"/>
  <path d="M420 314.8 c-7.1 -7.8 -23.1 -20.1 -35.5 -27.5 l-8 -4.8 -0.1 -4.9 c0 -2.9 -0.6 -5.2 -1.2 -5.4 -0.7 -0.2 -1 -0.8 -0.7 -1.2 1 -1.7 -6.6 -9 -10.6 -10.2 -3.4 -1 -4.2 -0.9 -5.9 0.7 -2.7 2.5 -2.7 5.9 0 5 2.4 -0.8 2.7 1 0.4 1.9 -1 0.4 -1.4 1.2 -1 2.2 0.5 1.2 -0.4 1 -3.6 -0.8 -2.3 -1.3 -4.3 -3 -4.4 -3.8 -0.9 -4.4 -0.8 -5.5 0.6 -5.5 0.9 0 1.4 0.7 1.2 1.8 -0.2 0.9 0.2 1.7 0.8 1.7 0.6 0 0.9 -0.4 0.5 -0.9 -0.3 -0.6 0.4 -1.5 1.5 -2.1 1.6 -0.9 1.8 -1.5 1 -3 -0.6 -1.1 -2.1 -2 -3.4 -2 -1.3 0 -2.9 -0.7 -3.6 -1.5 -1.1 -1.3 -0.8 -1.5 1.3 -1.5 4 0 12.7 3.6 17.9 7.5 5.2 3.8 10.6 10.6 13.8 17.2 2.2 4.7 2.3 4.7 17.5 14.3 6.1 3.8 11.9 7.7 13 8.7 1.1 1 3.1 2.6 4.5 3.4 1.4 0.9 5.3 4.2 8.7 7.4 6.3 5.6 6.3 5.7 4.5 8 -0.9 1.4 -1.9 2.4 -2.2 2.4 -0.3 0 -3.4 -3.2 -7 -7.1z m8.6 4.1 c1.1 -1.8 -17.9 -18.9 -20.9 -18.9 -1 0 18.3 19.7 19.5 19.9 0.4 0.1 1 -0.4 1.4 -1z m-32.9 -27.5 c-2.1 -1.4 -4.1 -2.3 -4.4 -2 -0.6 0.6 5.6 4.6 7.2 4.6 0.5 0 -0.8 -1.2 -2.8 -2.6z"/>
  <path d="M598.7 319.7 c-1.5 -2.3 -1.4 -2.6 3.2 -7.1 4.1 -4 8.3 -6.3 6.6 -3.6 -0.3 0.6 0.4 1 1.6 1 1.9 0 1.5 0.8 -3.2 5.8 -3 3.1 -5.7 5.8 -6 6 -0.3 0.1 -1.3 -0.8 -2.2 -2.1z m3.6 -1 c0.9 -2.3 -0.8 -4 -2.2 -2.3 -1.3 1.5 -0.7 3.6 0.9 3.6 0.4 0 1 -0.6 1.3 -1.3z"/>
  <path d="M822.6 310.2 c-7.3 -12.8 -9.6 -16.1 -11.1 -15.6 -0.8 0.3 -1.2 -0.3 -1.1 -1.8 0 -1.3 -0.3 -2.3 -0.9 -2.3 -1.8 0 -5.7 -4.6 -5.1 -6.1 1 -2.6 2.5 -1.4 7.4 5.9 8.1 12.1 17.6 28.7 16.5 28.7 -0.4 0 -3 -3.9 -5.7 -8.8z"/>
  <path d="M680.4 306.1 c0.4 -0.5 -0.7 -1.2 -2.4 -1.6 -2.7 -0.6 -3.6 -1.9 -3.1 -4.7 0 -0.5 -1 -0.8 -2.3 -0.8 -1.3 0 -3.4 -0.9 -4.7 -2 l-2.4 -1.9 3.1 -0.1 c3.2 0 10.5 4.2 13.9 7.9 1.6 1.9 1.7 2.4 0.5 3.1 -1.9 1.2 -3.3 1.3 -2.6 0.1z"/>
  <path d="M211.6 301.4 c3.8 -7.1 12.6 -19.7 14.2 -20.2 2.3 -0.7 0.6 4.2 -1.9 5.5 -1.3 0.7 -1.9 1.3 -1.4 1.3 0.6 0 0.3 0.5 -0.5 1 -0.9 0.6 -1 1 -0.3 1 1.8 0 1.1 4 -0.9 5.1 -1 0.5 -1.8 1.4 -1.8 2 0 1.9 -3.8 6.1 -4.2 4.7 -0.3 -0.9 -1.4 -0.2 -3.2 1.7 l-2.8 3 2.8 -5.1z"/>
  <path d="M419.6 300 c-2.2 -5.5 -2 -9.8 0.7 -15 2.8 -5.8 6 -6.5 7.6 -1.9 2.3 6.6 0.4 14.6 -4.7 19.2 -1.9 1.7 -2 1.7 -3.6 -2.3z m8 -8.7 c0.7 -3.9 -0.1 -5.1 -3.6 -5.5 -1.8 -0.2 -2.8 0.4 -3.8 2.5 -1.4 3 -0.8 8.2 0.8 7.2 0.6 -0.3 1 -0.2 1 0.4 0 0.7 0.8 0.7 2.5 -0.1 1.7 -0.7 2.7 -2.2 3.1 -4.5z"/>
  <path d="M606.8 301.5 c2.1 -4.3 1.9 -12.5 -0.3 -12.5 -0.9 0 -1.5 -0.9 -1.5 -2.5 0 -1.4 -0.4 -2.5 -1 -2.5 -0.5 0 -1 0.5 -1 1.2 0 0.6 -0.3 0.8 -0.7 0.4 -0.4 -0.3 -1.3 0.6 -2 2.1 -1.3 2.8 -1.3 2.8 -0.8 -1.1 1 -8.4 5.5 -8.5 8.9 -0.4 2.1 5.1 1.7 12.1 -1 15.4 -1.5 1.8 -1.5 1.8 -0.6 -0.1z"/>
  <path d="M622 291.6 c0 -0.2 0.7 -2 1.5 -3.9 1 -2.5 2.1 -3.5 3.5 -3.4 1.1 0.1 2 0.5 2 0.9 0 0.4 0.8 0.8 1.8 0.8 1 0 -0.1 1.2 -2.8 3 -4.2 2.8 -6 3.6 -6 2.6z"/>
  <path d="M640.1 287.4 c2.6 -2.7 5.8 -7.1 7.2 -9.9 1.4 -2.7 3.2 -5.9 4 -7 1.5 -1.9 1.6 -1.9 3.6 -0.1 1.2 1.1 2.1 3 2.1 4.3 0 1.7 0.6 2.3 2.3 2.3 1.4 0 -0.8 1.7 -6.3 4.8 -4.7 2.6 -10.5 6.1 -13 7.6 l-4.5 2.8 4.6 -4.8z"/>
  <path d="M406.1 284.3 c-2.9 -5.8 -3 -6.5 -1.3 -6.1 2.7 0.7 5.4 -2.7 5.4 -6.8 0 -3.6 -3.4 -11 -4.9 -10.7 -0.5 0.1 -2.1 -0.8 -3.6 -2 -2 -1.6 -2.4 -2.6 -1.7 -3.7 2.3 -3.7 11.2 9.8 12.5 19.1 0.7 4.6 -0.9 15.4 -2.4 16.3 -0.4 0.3 -2.2 -2.5 -4 -6.1z"/>
  <path d="M617.1 288.6 c-1.7 -4.3 -2.4 -10.9 -1.7 -15.1 0.8 -4.1 2.1 -3.9 3 0.5 0.3 1.8 1 2.9 1.6 2.5 0.5 -0.3 1 -0.1 1 0.4 0 0.6 -0.4 1.1 -1 1.1 -1.6 0 -0.7 2.4 1.1 3 1.4 0.4 1.3 1.1 -0.7 5.5 l-2.2 5 -1.1 -2.9z"/>
  <path d="M356.3 289.2 c-3 -0.4 -2.9 -1.8 0 -2.4 2.3 -0.4 7.2 0.8 5.2 1.3 -0.5 0.1 1.7 0.5 5 0.9 l6 0.7 -7 -0.1 c-3.8 0 -8 -0.2 -9.2 -0.4z"/>
  <path d="M373.3 288.6 c0.5 -1.4 -4.5 -4.6 -7.2 -4.6 -0.6 0 -1.5 -0.9 -2.1 -2 -1.7 -3.2 0.8 -2.5 7.7 2.2 6.1 4.2 7 5.8 3.1 5.8 -1.3 0 -1.8 -0.5 -1.5 -1.4z"/>
  <path d="M652 289 c0 -1.2 11.1 -10 12.7 -10 0.7 0 1 1.2 0.8 3 -0.5 3.4 -0.3 3.5 7 4.5 3.8 0.6 4.5 0.9 3 1.5 -4.1 1.5 -8.8 2.2 -8.1 1.2 0.7 -1.2 -6 -2.6 -7.7 -1.5 -0.7 0.5 0.3 1 2.8 1.4 3.2 0.5 2.5 0.6 -3.2 0.8 -4.2 0 -7.3 -0.3 -7.3 -0.9z"/>
  <path d="M682.8 284 c0.6 -0.8 1.2 -2.2 1.2 -3.3 0 -2.4 2 -4.3 4.5 -4.2 2.2 0 9.4 -7.8 11.9 -12.8 1.1 -2.3 1.2 -3.5 0.4 -4.4 -0.6 -0.8 -0.8 -1.6 -0.4 -2 0.3 -0.3 -0.1 -1.5 -1.1 -2.5 -1.5 -1.7 -1.4 -1.8 2.5 -1.8 l4.2 0 -2 4.9 c-2.3 6 -7.8 15.1 -9.1 15.1 -0.5 0 -0.9 0.6 -0.9 1.4 0 1.3 -6 6.7 -11 10 -1.2 0.8 -1.3 0.8 -0.2 -0.4z"/>
  <path d="M785.7 282.7 c-7 -10.7 -31.6 -37.3 -47.2 -51 -8.4 -7.4 -9.5 -8.7 -7.4 -8.7 1.2 0 42.5 41 44.4 44.2 0.6 0.9 3.6 5.1 6.9 9.3 3.2 4.2 5.6 7.8 5.3 8.1 -0.2 0.3 -1.1 -0.6 -2 -1.9z"/>
  <path d="M340.2 280.9 c-7 -5.2 -19.6 -24.9 -17.7 -27.9 0.4 -0.6 5 -0.9 11.3 -0.9 l10.7 0.2 -7.3 0.7 c-11.9 1.3 -12.1 1.4 -11.2 5.5 1 4.2 5 11.3 8.1 14 l2.2 2 -0.6 -2.3 c-0.5 -2.2 -0.3 -2.3 4.6 -2 4 0.2 5.3 0.7 5.5 2.1 0.3 1.2 -0.5 1.9 -2.8 2.3 -2.2 0.5 -2.8 1 -2.1 1.7 0.6 0.6 1.1 1.9 1.1 2.8 0 1 1 2.5 2.2 3.3 1.2 0.9 1.8 1.6 1.2 1.6 -0.5 0 -2.9 -1.4 -5.2 -3.1z"/>
  <path d="M637.9 276.8 c0.5 -1.3 0.9 -4.3 0.9 -6.7 0.1 -2.3 0.7 -5 1.5 -6 0.8 -0.9 1.7 -2.3 2.1 -3.1 1.5 -3.5 -0.4 9.9 -1.9 13.8 -1.7 4.2 -4.2 6.1 -2.6 2z"/>
  <path d="M258.4 263.4 c3.1 -3.6 5.6 -7.4 5.6 -8.4 0 -2.4 1.5 -3.4 3.6 -2.2 1.3 0.7 0.8 1.7 -3.3 6.1 -2.6 2.8 -5.8 6.5 -7.1 8.1 -1.3 1.7 -2.8 3 -3.3 3 -0.6 0 1.5 -3 4.5 -6.6z"/>
  <path d="M621 260.2 c0 -1.1 8.4 -9.2 9.6 -9.2 0.5 0 1 1.1 1 2.5 0 1.6 -0.5 2.4 -1.2 2.1 -0.8 -0.3 -1.1 0.1 -0.8 0.8 0.4 0.9 -0.7 1.6 -3 2 -2 0.4 -3.6 1.1 -3.6 1.6 0 0.6 -0.4 1 -1 1 -0.5 0 -1 -0.4 -1 -0.8z"/>
  <path d="M669.1 258.1 c-2.2 -1.4 2.5 -3.8 8.9 -4.6 l5.5 -0.7 -2.8 2.2 c-1.6 1.3 -4.2 2.3 -5.8 2.4 -1.6 0.1 -2.9 0.4 -2.9 0.9 0 0.9 -1.2 0.9 -2.9 -0.2z"/>
  <path d="M289.3 232.2 c2.6 -2.8 4.7 -5.6 4.7 -6.1 0 -0.6 0.7 -0.8 1.5 -0.5 1.1 0.5 1.3 0.2 0.9 -1 -0.9 -2.5 2.2 -4.9 5 -3.9 2.3 0.8 2 1.2 -5.7 7.8 -10.3 8.9 -12.4 10.2 -6.4 3.7z"/>
  <path d="M278.1 221.4 c7.7 -8.3 21 -17 20.9 -13.6 0 1.5 -5.8 7.2 -7.4 7.2 -0.9 0 -1.6 0.4 -1.6 1 0 2.3 -3.3 4.7 -6 4.4 -1.8 -0.2 -3.4 0.4 -4.5 1.6 -1 1.1 -2.3 2 -2.8 2 -0.6 0 0 -1.2 1.4 -2.6z"/>
  <path d="M752 222.5 c-0.7 -0.9 -2.1 -1.3 -3.1 -1 -1.1 0.4 -1.9 0.2 -1.9 -0.4 0 -0.6 -1.1 -1.1 -2.3 -1.1 -1.8 0 -2.8 -1 -4.2 -4 -3.2 -7.2 -0.5 -6.3 9.5 2.9 3 2.7 5 5 4.4 5.1 -0.6 0 -1.7 -0.7 -2.4 -1.5z"/>
  <path d="M701.5 203.4 c-2.7 -1.9 -5.7 -4 -6.5 -4.7 -0.8 -0.6 -2.6 -1.8 -4 -2.4 -1.4 -0.7 -3.4 -1.9 -4.5 -2.5 -5.6 -3.6 -10.8 -6.5 -19.9 -11.1 -5.6 -2.7 -10.2 -4.9 -10.4 -4.8 -0.1 0.1 -2.8 -1.2 -6 -2.8 -3.1 -1.5 -10.1 -4.4 -15.4 -6.2 -8.9 -3.1 -11.1 -4.6 -8.1 -5.6 0.6 -0.2 1.7 0.3 2.6 1.1 2 2 18.5 8.6 21.6 8.6 1.3 0 2.2 0.3 1.9 0.6 -0.4 0.3 4.3 3 10.3 6 6 3.1 14.7 7.6 19.2 10.2 4.5 2.6 9.6 5.4 11.2 6.2 1.7 0.8 3.2 1.7 3.5 2 0.6 0.6 7.8 6.1 9.4 7.2 0.6 0.4 0.8 0.9 0.6 1.1 -0.3 0.3 -2.7 -1.1 -5.5 -2.9z"/>
  <path d="M718.1 195.3 c-1.9 -1.2 -4.7 -2.3 -6.3 -2.3 -2.1 0 -3.1 -0.6 -3.5 -2 -0.4 -1.4 -1.4 -2 -3.3 -2 -1.5 0 -3.5 -0.9 -4.5 -2 -1 -1.1 -2.4 -2 -3.2 -2 -0.8 0 -1.1 -0.4 -0.8 -1 0.3 -0.5 0.1 -1 -0.6 -1 -0.7 0 -0.9 -0.3 -0.6 -0.7 0.4 -0.3 0.2 -1.2 -0.4 -2 -0.6 -0.7 -0.7 -1.3 -0.2 -1.3 1.1 0 14.3 8.2 21.3 13.3 6.8 5 6.4 4.6 5.9 5 -0.2 0.2 -1.9 -0.7 -3.8 -2z"/>
  <path d="M317 191.5 c1.4 -1.7 7 -5.6 11.9 -8.2 1.3 -0.7 3.4 -1.3 4.7 -1.3 2.2 0 2.3 0.2 1.2 2.3 -1.7 2.9 -3 3.8 -4.6 3.2 -0.7 -0.3 -1.1 -0.1 -0.8 0.4 0.7 1.1 -3.1 2.4 -6.2 2.1 -1.3 -0.1 -3.5 0.6 -5 1.6 -2.6 1.7 -2.6 1.7 -1.2 -0.1z"/>
  <path d="M376.9 175.6 c0.7 -0.8 1 -1.9 0.7 -2.5 -0.9 -1.4 2 -2.1 3.4 -0.8 0.8 0.8 1.1 0.8 0.7 0.1 -0.4 -0.7 0.2 -0.9 1.9 -0.6 3 0.6 3 0.6 -3 3.2 -3.5 1.5 -4.5 1.6 -3.7 0.6z"/>
  <path d="M678.8 171.4 c-2.9 -1.5 -5.9 -2.3 -8 -2.1 -2.3 0.3 -4 -0.3 -5.8 -1.9 -1.4 -1.2 -3.4 -2.4 -4.5 -2.6 -1.1 -0.2 -1.9 -1.1 -1.9 -2 0.1 -1.1 -2.4 -2.5 -8.5 -4.8 -4.7 -1.7 -9.5 -3.6 -10.5 -4.2 -1.5 -0.8 -2.1 -0.6 -2.8 0.6 -1.1 1.9 -2.8 2.1 -2.8 0.4 0 -2.1 -1.3 -3.5 -3.9 -4.3 -1.7 -0.5 -2.2 -0.4 -1.6 0.5 0.5 0.8 0.3 1.1 -0.6 0.8 -0.8 -0.3 -1.4 -1.1 -1.4 -1.8 0 -2.1 -14 -6 -22.5 -6.3 -5.9 -0.2 -7.5 -0.5 -7.5 -1.7 0 -2.5 6.9 -1.5 22.8 3.4 18.5 5.8 36.2 12.8 52 20.7 13 6.5 13.3 6.7 12.6 7.3 -0.2 0.2 -2.5 -0.7 -5.1 -2z"/>
  <path d="M361.6 168.8 c-0.9 -0.5 -2.6 -0.6 -3.9 -0.3 -4.7 1.5 0.7 -2.2 7.6 -5 5.7 -2.4 7 -2.6 7.7 -1.4 0.7 1 0.3 1.6 -1 2.1 -1.1 0.4 -2 1.7 -2 2.8 0 2.1 -1.4 2.7 -2.5 1 -0.9 -1.5 -2.5 -1.2 -1.9 0.3 0.6 1.6 -1.7 1.8 -4 0.5z"/>
  <path d="M439.8 154.6 c0.4 -0.6 0.7 -1.5 0.7 -2.1 0 -1.3 4.9 -1.9 8.3 -1 3.6 0.9 1.6 2.4 -4.6 3.4 -3.6 0.6 -4.9 0.5 -4.4 -0.3z"/>
  <path d="M584.5 154.1 c-4.3 -0.9 -3.7 -2.6 1.2 -2.9 3.7 -0.3 4.1 -0.1 3.6 1.7 -0.3 1.2 -0.8 2 -1.2 2 -0.3 -0.1 -1.9 -0.4 -3.6 -0.8z"/>
  <path d="M399.5 152.7 c-1.7 -1.3 -1.7 -1.5 0.6 -3 3.3 -2.3 7.1 -2.3 6.2 0.1 -0.8 2.1 -2.8 4.2 -4 4.2 -0.5 0 -1.7 -0.6 -2.8 -1.3z"/>
  <path d="M431.5 144.3 c-1.1 -0.2 -2.7 -0.6 -3.5 -0.9 -2.6 -0.9 1.9 -3.4 5.9 -3.3 2 0.1 2.8 0.3 1.9 0.6 -2.1 0.5 -2.4 1.9 -0.6 2.5 1.8 0.6 -1.3 1.5 -3.7 1.1z"/>
  <path d="M469.6 135 c-3.4 -1.2 0.1 -2.3 8.3 -2.6 4.2 -0.1 6.1 0 4.3 0.3 -1.8 0.2 -3 0.8 -2.7 1.3 0.3 0.4 -1 0.8 -2.9 0.8 -1.9 0 -3.8 0.2 -4.3 0.5 -0.4 0.2 -1.7 0.1 -2.7 -0.3z"/>
  <path d="M556.4 134.9 c-1.6 -0.4 -2.3 -0.7 -1.6 -0.8 0.7 0 1 -0.6 0.7 -1.1 -0.7 -1.2 10 -0.3 12.4 1 1.9 1 -7.6 1.7 -11.5 0.9z"/>
 </g>
</svg>